<mxfile host="app.diagrams.net" agent="Mozilla/5.0 (Windows NT 10.0; Win64; x64) AppleWebKit/537.36 (KHTML, like Gecko) Chrome/137.0.0.0 Safari/537.36" version="27.2.0" pages="2">
  <diagram name="Page-1" id="dzfVKB1yosHmG_hDHR0C">
    <mxGraphModel dx="1671" dy="3394" grid="1" gridSize="11" guides="1" tooltips="1" connect="1" arrows="1" fold="1" page="1" pageScale="1" pageWidth="850" pageHeight="1100" math="0" shadow="0">
      <root>
        <mxCell id="0" />
        <mxCell id="1" parent="0" />
        <mxCell id="RfrmE-4vsHcAyxVlg1d9-1" value="&lt;font style=&quot;color: rgb(102, 0, 0); font-size: 72px;&quot; face=&quot;Times New Roman&quot;&gt;&lt;b style=&quot;&quot;&gt;Mini Bank System - Use Case Diagram&lt;/b&gt;&lt;/font&gt;" style="text;html=1;align=center;verticalAlign=middle;whiteSpace=wrap;rounded=0;" vertex="1" parent="1">
          <mxGeometry x="72.62" width="1525" height="50" as="geometry" />
        </mxCell>
        <mxCell id="RfrmE-4vsHcAyxVlg1d9-3" value="" style="rounded=0;whiteSpace=wrap;html=1;movable=1;resizable=1;rotatable=1;deletable=1;editable=1;locked=0;connectable=1;fillColor=#CDE7FF;" vertex="1" parent="1">
          <mxGeometry x="236.75" y="114" width="1196.75" height="2040" as="geometry" />
        </mxCell>
        <mxCell id="RfrmE-4vsHcAyxVlg1d9-4" value="&lt;b&gt;&lt;font style=&quot;font-size: 18px;&quot; face=&quot;Times New Roman&quot;&gt;EndUser&lt;/font&gt;&lt;/b&gt;&lt;div&gt;&lt;br&gt;&lt;/div&gt;" style="shape=umlActor;verticalLabelPosition=bottom;verticalAlign=top;html=1;outlineConnect=0;" vertex="1" parent="1">
          <mxGeometry x="80" y="200" width="80" height="160" as="geometry" />
        </mxCell>
        <mxCell id="RfrmE-4vsHcAyxVlg1d9-11" value="&lt;font style=&quot;font-size: 14px;&quot; face=&quot;Times New Roman&quot;&gt;&lt;b&gt;SingUp&lt;/b&gt;&lt;/font&gt;" style="ellipse;whiteSpace=wrap;html=1;strokeWidth=2;" vertex="1" parent="1">
          <mxGeometry x="583.5" y="290" width="110" height="40" as="geometry" />
        </mxCell>
        <mxCell id="RfrmE-4vsHcAyxVlg1d9-12" value="&lt;font style=&quot;font-size: 14px;&quot; face=&quot;Times New Roman&quot;&gt;&lt;b&gt;LogIn&lt;/b&gt;&lt;/font&gt;" style="ellipse;whiteSpace=wrap;html=1;" vertex="1" parent="1">
          <mxGeometry x="760" y="180" width="115" height="40" as="geometry" />
        </mxCell>
        <mxCell id="RfrmE-4vsHcAyxVlg1d9-13" value="&lt;font style=&quot;font-size: 14px;&quot; face=&quot;Times New Roman&quot;&gt;&lt;b&gt;Exist&lt;/b&gt;&lt;/font&gt;" style="ellipse;whiteSpace=wrap;html=1;strokeWidth=2;" vertex="1" parent="1">
          <mxGeometry x="596" y="1450" width="115" height="40" as="geometry" />
        </mxCell>
        <mxCell id="RfrmE-4vsHcAyxVlg1d9-14" value="&lt;font face=&quot;Times New Roman&quot;&gt;&lt;span style=&quot;font-size: 14px;&quot;&gt;&lt;b&gt;ShowLastNTransactions&lt;/b&gt;&lt;/span&gt;&lt;/font&gt;" style="ellipse;whiteSpace=wrap;html=1;strokeWidth=2;" vertex="1" parent="1">
          <mxGeometry x="670" y="830" width="180" height="40" as="geometry" />
        </mxCell>
        <mxCell id="RfrmE-4vsHcAyxVlg1d9-15" value="&lt;font face=&quot;Times New Roman&quot;&gt;&lt;span style=&quot;font-size: 14px;&quot;&gt;&lt;b&gt;TransferBetweenAccounts&lt;/b&gt;&lt;/span&gt;&lt;/font&gt;" style="ellipse;whiteSpace=wrap;html=1;strokeWidth=2;" vertex="1" parent="1">
          <mxGeometry x="541" y="540" width="190" height="40" as="geometry" />
        </mxCell>
        <mxCell id="RfrmE-4vsHcAyxVlg1d9-16" value="&lt;font face=&quot;Times New Roman&quot;&gt;&lt;span style=&quot;font-size: 14px;&quot;&gt;&lt;b&gt;WithdrawMoney&lt;/b&gt;&lt;/span&gt;&lt;/font&gt;" style="ellipse;whiteSpace=wrap;html=1;strokeWidth=2;" vertex="1" parent="1">
          <mxGeometry x="578.5" y="390" width="115" height="40" as="geometry" />
        </mxCell>
        <mxCell id="RfrmE-4vsHcAyxVlg1d9-17" value="&lt;font face=&quot;Times New Roman&quot;&gt;&lt;span style=&quot;font-size: 14px;&quot;&gt;&lt;b&gt;CheckBalance&lt;/b&gt;&lt;/span&gt;&lt;/font&gt;" style="ellipse;whiteSpace=wrap;html=1;strokeWidth=2;" vertex="1" parent="1">
          <mxGeometry x="578.5" y="490" width="115" height="40" as="geometry" />
        </mxCell>
        <mxCell id="RfrmE-4vsHcAyxVlg1d9-18" value="&lt;font face=&quot;Times New Roman&quot;&gt;&lt;span style=&quot;font-size: 14px;&quot;&gt;&lt;b&gt;ReguestAccountOpening&lt;/b&gt;&lt;/span&gt;&lt;/font&gt;" style="ellipse;whiteSpace=wrap;html=1;strokeWidth=2;" vertex="1" parent="1">
          <mxGeometry x="541" y="340" width="190" height="40" as="geometry" />
        </mxCell>
        <mxCell id="RfrmE-4vsHcAyxVlg1d9-20" value="&lt;font face=&quot;Times New Roman&quot;&gt;&lt;span style=&quot;font-size: 14px;&quot;&gt;&lt;b&gt;UpdateAccountInfo&lt;/b&gt;&lt;/span&gt;&lt;/font&gt;" style="ellipse;whiteSpace=wrap;html=1;strokeWidth=2;" vertex="1" parent="1">
          <mxGeometry x="561" y="590" width="150" height="40" as="geometry" />
        </mxCell>
        <mxCell id="RfrmE-4vsHcAyxVlg1d9-21" value="&lt;font face=&quot;Times New Roman&quot;&gt;&lt;span style=&quot;font-size: 14px;&quot;&gt;&lt;b&gt;BookingBankServices&lt;/b&gt;&lt;/span&gt;&lt;/font&gt;" style="ellipse;whiteSpace=wrap;html=1;strokeWidth=2;" vertex="1" parent="1">
          <mxGeometry x="532.5" y="1110" width="167.5" height="40" as="geometry" />
        </mxCell>
        <mxCell id="RfrmE-4vsHcAyxVlg1d9-22" value="&lt;font face=&quot;Times New Roman&quot;&gt;&lt;span style=&quot;font-size: 14px;&quot;&gt;&lt;b&gt;MonthlyStatementGenerator&lt;/b&gt;&lt;/span&gt;&lt;/font&gt;" style="ellipse;whiteSpace=wrap;html=1;strokeWidth=2;" vertex="1" parent="1">
          <mxGeometry x="530" y="690" width="202" height="40" as="geometry" />
        </mxCell>
        <mxCell id="RfrmE-4vsHcAyxVlg1d9-23" value="&lt;font face=&quot;Times New Roman&quot;&gt;&lt;span style=&quot;font-size: 14px;&quot;&gt;&lt;b&gt;ShowTransactionsAfterDateX&lt;/b&gt;&lt;/span&gt;&lt;/font&gt;" style="ellipse;whiteSpace=wrap;html=1;strokeWidth=2;" vertex="1" parent="1">
          <mxGeometry x="900" y="930" width="212" height="40" as="geometry" />
        </mxCell>
        <mxCell id="RfrmE-4vsHcAyxVlg1d9-24" value="&lt;font face=&quot;Times New Roman&quot;&gt;&lt;span style=&quot;font-size: 14px;&quot;&gt;&lt;b&gt;PrintAllAccountTransactions&lt;/b&gt;&lt;/span&gt;&lt;/font&gt;" style="ellipse;whiteSpace=wrap;html=1;strokeWidth=2;" vertex="1" parent="1">
          <mxGeometry x="830" y="870" width="215" height="40" as="geometry" />
        </mxCell>
        <mxCell id="RfrmE-4vsHcAyxVlg1d9-25" value="&lt;font face=&quot;Times New Roman&quot;&gt;&lt;span style=&quot;font-size: 14px;&quot;&gt;&lt;b&gt;UndoLastComplaintSubmitted&lt;/b&gt;&lt;/span&gt;&lt;/font&gt;" style="ellipse;whiteSpace=wrap;html=1;strokeWidth=2;" vertex="1" parent="1">
          <mxGeometry x="530" y="640" width="212" height="40" as="geometry" />
        </mxCell>
        <mxCell id="RfrmE-4vsHcAyxVlg1d9-26" value="&lt;font face=&quot;Times New Roman&quot;&gt;&lt;span style=&quot;font-size: 14px;&quot;&gt;&lt;b&gt;DepositeMoney&lt;/b&gt;&lt;/span&gt;&lt;/font&gt;" style="ellipse;whiteSpace=wrap;html=1;strokeWidth=2;" vertex="1" parent="1">
          <mxGeometry x="578.5" y="440" width="115" height="40" as="geometry" />
        </mxCell>
        <mxCell id="RfrmE-4vsHcAyxVlg1d9-31" value="&lt;font face=&quot;Times New Roman&quot;&gt;&lt;span style=&quot;font-size: 14px;&quot;&gt;&lt;b&gt;ShowTop3RichestCustomers&lt;/b&gt;&lt;/span&gt;&lt;/font&gt;" style="ellipse;whiteSpace=wrap;html=1;strokeWidth=2;" vertex="1" parent="1">
          <mxGeometry x="1031.25" y="1750" width="206.5" height="40" as="geometry" />
        </mxCell>
        <mxCell id="RfrmE-4vsHcAyxVlg1d9-32" value="&lt;font face=&quot;Times New Roman&quot;&gt;&lt;span style=&quot;font-size: 14px;&quot;&gt;&lt;b&gt;DeleteAccount&lt;/b&gt;&lt;/span&gt;&lt;/font&gt;" style="ellipse;whiteSpace=wrap;html=1;strokeWidth=2;" vertex="1" parent="1">
          <mxGeometry x="1054" y="1550" width="167.5" height="40" as="geometry" />
        </mxCell>
        <mxCell id="RfrmE-4vsHcAyxVlg1d9-33" value="&lt;font face=&quot;Times New Roman&quot;&gt;&lt;span style=&quot;font-size: 14px;&quot;&gt;&lt;b&gt;ViewOpingingAccounts&lt;/b&gt;&lt;/span&gt;&lt;/font&gt;" style="ellipse;whiteSpace=wrap;html=1;strokeWidth=2;" vertex="1" parent="1">
          <mxGeometry x="1054" y="1500" width="167.5" height="40" as="geometry" />
        </mxCell>
        <mxCell id="RfrmE-4vsHcAyxVlg1d9-35" value="&lt;font face=&quot;Times New Roman&quot;&gt;&lt;span style=&quot;font-size: 14px;&quot;&gt;&lt;b&gt;ViewAverageFeedbackScore&lt;/b&gt;&lt;/span&gt;&lt;/font&gt;" style="ellipse;whiteSpace=wrap;html=1;strokeWidth=2;" vertex="1" parent="1">
          <mxGeometry x="1023.25" y="1900" width="217.5" height="40" as="geometry" />
        </mxCell>
        <mxCell id="RfrmE-4vsHcAyxVlg1d9-36" value="&lt;font face=&quot;Times New Roman&quot;&gt;&lt;span style=&quot;font-size: 14px;&quot;&gt;&lt;b&gt;UnlockLockedAccounts&lt;/b&gt;&lt;/span&gt;&lt;/font&gt;" style="ellipse;whiteSpace=wrap;html=1;strokeWidth=2;" vertex="1" parent="1">
          <mxGeometry x="1054" y="1650" width="167.5" height="40" as="geometry" />
        </mxCell>
        <mxCell id="RfrmE-4vsHcAyxVlg1d9-37" value="&lt;font face=&quot;Times New Roman&quot;&gt;&lt;span style=&quot;font-size: 14px;&quot;&gt;&lt;b&gt;ShowTotalBankBalance&lt;/b&gt;&lt;/span&gt;&lt;/font&gt;" style="ellipse;whiteSpace=wrap;html=1;strokeWidth=2;" vertex="1" parent="1">
          <mxGeometry x="1048.25" y="1800" width="167.5" height="40" as="geometry" />
        </mxCell>
        <mxCell id="RfrmE-4vsHcAyxVlg1d9-38" value="&lt;font face=&quot;Times New Roman&quot;&gt;&lt;span style=&quot;font-size: 14px;&quot;&gt;&lt;b&gt;AddNewAdmin&lt;/b&gt;&lt;/span&gt;&lt;/font&gt;" style="ellipse;whiteSpace=wrap;html=1;strokeWidth=2;" vertex="1" parent="1">
          <mxGeometry x="1050.75" y="1850" width="167.5" height="40" as="geometry" />
        </mxCell>
        <mxCell id="RfrmE-4vsHcAyxVlg1d9-39" value="&lt;font face=&quot;Times New Roman&quot;&gt;&lt;span style=&quot;font-size: 14px;&quot;&gt;&lt;b&gt;ApproveReguestsAccountsOpening&lt;/b&gt;&lt;/span&gt;&lt;/font&gt;" style="ellipse;whiteSpace=wrap;html=1;strokeWidth=2;" vertex="1" parent="1">
          <mxGeometry x="1010" y="1450" width="244" height="40" as="geometry" />
        </mxCell>
        <mxCell id="RfrmE-4vsHcAyxVlg1d9-42" value="&lt;font face=&quot;Times New Roman&quot;&gt;&lt;span style=&quot;font-size: 14px;&quot;&gt;&lt;b&gt;ExportAllAccountInfoToNewFile&lt;/b&gt;&lt;/span&gt;&lt;/font&gt;" style="ellipse;whiteSpace=wrap;html=1;strokeWidth=2;" vertex="1" parent="1">
          <mxGeometry x="1017" y="1700" width="230" height="40" as="geometry" />
        </mxCell>
        <mxCell id="RfrmE-4vsHcAyxVlg1d9-43" value="&lt;font face=&quot;Times New Roman&quot;&gt;&lt;span style=&quot;font-size: 14px;&quot;&gt;&lt;b&gt;SearchAccount&lt;/b&gt;&lt;/span&gt;&lt;/font&gt;" style="ellipse;whiteSpace=wrap;html=1;strokeWidth=2;" vertex="1" parent="1">
          <mxGeometry x="1054" y="1600" width="167.5" height="40" as="geometry" />
        </mxCell>
        <mxCell id="RfrmE-4vsHcAyxVlg1d9-45" value="&lt;font face=&quot;Times New Roman&quot;&gt;&lt;span style=&quot;font-size: 14px;&quot;&gt;&lt;b&gt;ViewRequests&lt;/b&gt;&lt;/span&gt;&lt;/font&gt;" style="ellipse;whiteSpace=wrap;html=1;strokeWidth=2;" vertex="1" parent="1">
          <mxGeometry x="1054" y="1400" width="167.5" height="40" as="geometry" />
        </mxCell>
        <mxCell id="RfrmE-4vsHcAyxVlg1d9-46" value="&lt;b style=&quot;font-family: &amp;quot;Times New Roman&amp;quot;; font-size: 14px;&quot;&gt;Transactions&lt;/b&gt;" style="ellipse;whiteSpace=wrap;html=1;strokeWidth=2;" vertex="1" parent="1">
          <mxGeometry x="700" y="930" width="120" height="40" as="geometry" />
        </mxCell>
        <mxCell id="RfrmE-4vsHcAyxVlg1d9-51" value="&lt;b style=&quot;font-family: &amp;quot;Times New Roman&amp;quot;; font-size: 14px;&quot;&gt;Review&lt;/b&gt;" style="ellipse;whiteSpace=wrap;html=1;strokeWidth=2;" vertex="1" parent="1">
          <mxGeometry x="595" y="1370" width="120" height="40" as="geometry" />
        </mxCell>
        <mxCell id="RfrmE-4vsHcAyxVlg1d9-54" value="&lt;font style=&quot;font-size: 14px;&quot; face=&quot;Times New Roman&quot;&gt;&lt;b&gt;Loan&lt;/b&gt;&lt;/font&gt;" style="ellipse;whiteSpace=wrap;html=1;strokeWidth=2;" vertex="1" parent="1">
          <mxGeometry x="556.25" y="1010" width="120" height="40" as="geometry" />
        </mxCell>
        <mxCell id="RfrmE-4vsHcAyxVlg1d9-55" value="&lt;font face=&quot;Times New Roman&quot;&gt;&lt;span style=&quot;font-size: 14px;&quot;&gt;&lt;b&gt;Consultation&lt;/b&gt;&lt;/span&gt;&lt;/font&gt;" style="ellipse;whiteSpace=wrap;html=1;strokeWidth=2;" vertex="1" parent="1">
          <mxGeometry x="556.25" y="1190" width="120" height="40" as="geometry" />
        </mxCell>
        <mxCell id="RfrmE-4vsHcAyxVlg1d9-58" value="&lt;div&gt;&lt;font face=&quot;Times New Roman&quot;&gt;&lt;span style=&quot;font-size: 18px;&quot;&gt;&lt;b&gt;Admin&lt;/b&gt;&lt;/span&gt;&lt;/font&gt;&lt;/div&gt;" style="shape=umlActor;verticalLabelPosition=bottom;verticalAlign=top;html=1;outlineConnect=0;" vertex="1" parent="1">
          <mxGeometry x="1550" y="1120" width="80" height="160" as="geometry" />
        </mxCell>
        <mxCell id="RfrmE-4vsHcAyxVlg1d9-60" value="&lt;span style=&quot;color: rgb(48, 48, 48); text-align: start; text-wrap-mode: wrap;&quot;&gt;&lt;font face=&quot;Times New Roman&quot; style=&quot;font-size: 12px;&quot;&gt;Include&lt;/font&gt;&lt;/span&gt;" style="endArrow=open;endSize=12;dashed=1;html=1;rounded=0;entryX=0.5;entryY=1;entryDx=0;entryDy=0;exitX=0.5;exitY=0;exitDx=0;exitDy=0;strokeWidth=2;" edge="1" parent="1" source="RfrmE-4vsHcAyxVlg1d9-21" target="RfrmE-4vsHcAyxVlg1d9-54">
          <mxGeometry width="160" relative="1" as="geometry">
            <mxPoint x="499" y="940" as="sourcePoint" />
            <mxPoint x="659" y="940" as="targetPoint" />
          </mxGeometry>
        </mxCell>
        <mxCell id="RfrmE-4vsHcAyxVlg1d9-61" value="&lt;span style=&quot;color: rgb(48, 48, 48); text-align: start; text-wrap-mode: wrap;&quot;&gt;&lt;font face=&quot;Times New Roman&quot; style=&quot;font-size: 12px;&quot;&gt;Include&lt;/font&gt;&lt;/span&gt;" style="endArrow=open;endSize=12;dashed=1;html=1;rounded=0;entryX=0.5;entryY=0;entryDx=0;entryDy=0;exitX=0.5;exitY=1;exitDx=0;exitDy=0;strokeWidth=2;" edge="1" parent="1" source="RfrmE-4vsHcAyxVlg1d9-21" target="RfrmE-4vsHcAyxVlg1d9-55">
          <mxGeometry width="160" relative="1" as="geometry">
            <mxPoint x="629" y="1130" as="sourcePoint" />
            <mxPoint x="629" y="1070" as="targetPoint" />
          </mxGeometry>
        </mxCell>
        <mxCell id="RfrmE-4vsHcAyxVlg1d9-62" value="&lt;span style=&quot;color: rgb(48, 48, 48); text-align: start; text-wrap-mode: wrap;&quot;&gt;&lt;font face=&quot;Times New Roman&quot; style=&quot;font-size: 12px;&quot;&gt;Include&lt;/font&gt;&lt;/span&gt;" style="endArrow=open;endSize=12;dashed=1;html=1;rounded=0;entryX=0.5;entryY=1;entryDx=0;entryDy=0;exitX=0.5;exitY=0;exitDx=0;exitDy=0;strokeWidth=2;" edge="1" parent="1" source="RfrmE-4vsHcAyxVlg1d9-46" target="RfrmE-4vsHcAyxVlg1d9-14">
          <mxGeometry width="160" relative="1" as="geometry">
            <mxPoint x="700" y="1160" as="sourcePoint" />
            <mxPoint x="700" y="1100" as="targetPoint" />
          </mxGeometry>
        </mxCell>
        <mxCell id="RfrmE-4vsHcAyxVlg1d9-63" value="&lt;span style=&quot;color: rgb(48, 48, 48); text-align: start; text-wrap-mode: wrap;&quot;&gt;&lt;font face=&quot;Times New Roman&quot; style=&quot;font-size: 12px;&quot;&gt;Include&lt;/font&gt;&lt;/span&gt;" style="endArrow=open;endSize=12;dashed=1;html=1;rounded=0;entryX=0;entryY=1;entryDx=0;entryDy=0;exitX=1;exitY=0;exitDx=0;exitDy=0;strokeWidth=2;" edge="1" parent="1" source="RfrmE-4vsHcAyxVlg1d9-46" target="RfrmE-4vsHcAyxVlg1d9-24">
          <mxGeometry width="160" relative="1" as="geometry">
            <mxPoint x="780" y="1170" as="sourcePoint" />
            <mxPoint x="780" y="1110" as="targetPoint" />
          </mxGeometry>
        </mxCell>
        <mxCell id="RfrmE-4vsHcAyxVlg1d9-64" value="&lt;span style=&quot;color: rgb(48, 48, 48); text-align: start; text-wrap-mode: wrap;&quot;&gt;&lt;font face=&quot;Times New Roman&quot; style=&quot;font-size: 12px;&quot;&gt;Include&lt;/font&gt;&lt;/span&gt;" style="endArrow=open;endSize=12;dashed=1;html=1;rounded=0;entryX=0;entryY=0.5;entryDx=0;entryDy=0;exitX=1;exitY=0.5;exitDx=0;exitDy=0;strokeWidth=2;" edge="1" parent="1" source="RfrmE-4vsHcAyxVlg1d9-46" target="RfrmE-4vsHcAyxVlg1d9-23">
          <mxGeometry width="160" relative="1" as="geometry">
            <mxPoint x="820" y="1100" as="sourcePoint" />
            <mxPoint x="820" y="1040" as="targetPoint" />
          </mxGeometry>
        </mxCell>
        <mxCell id="RfrmE-4vsHcAyxVlg1d9-65" value="" style="endArrow=none;html=1;rounded=0;entryX=0;entryY=0.5;entryDx=0;entryDy=0;strokeWidth=2;" edge="1" parent="1" source="RfrmE-4vsHcAyxVlg1d9-4" target="RfrmE-4vsHcAyxVlg1d9-12">
          <mxGeometry width="50" height="50" relative="1" as="geometry">
            <mxPoint x="620" y="610" as="sourcePoint" />
            <mxPoint x="670" y="560" as="targetPoint" />
          </mxGeometry>
        </mxCell>
        <mxCell id="RfrmE-4vsHcAyxVlg1d9-66" value="" style="endArrow=none;html=1;rounded=0;entryX=0;entryY=0.5;entryDx=0;entryDy=0;strokeWidth=2;" edge="1" parent="1" source="RfrmE-4vsHcAyxVlg1d9-4" target="RfrmE-4vsHcAyxVlg1d9-11">
          <mxGeometry width="50" height="50" relative="1" as="geometry">
            <mxPoint x="620" y="610" as="sourcePoint" />
            <mxPoint x="670" y="560" as="targetPoint" />
          </mxGeometry>
        </mxCell>
        <mxCell id="RfrmE-4vsHcAyxVlg1d9-67" value="" style="endArrow=none;html=1;rounded=0;entryX=0;entryY=0.5;entryDx=0;entryDy=0;strokeWidth=2;" edge="1" parent="1" source="RfrmE-4vsHcAyxVlg1d9-4" target="RfrmE-4vsHcAyxVlg1d9-18">
          <mxGeometry width="50" height="50" relative="1" as="geometry">
            <mxPoint x="620" y="610" as="sourcePoint" />
            <mxPoint x="670" y="560" as="targetPoint" />
          </mxGeometry>
        </mxCell>
        <mxCell id="RfrmE-4vsHcAyxVlg1d9-68" value="" style="endArrow=none;html=1;rounded=0;entryX=0;entryY=0.5;entryDx=0;entryDy=0;strokeWidth=2;" edge="1" parent="1" source="RfrmE-4vsHcAyxVlg1d9-4" target="RfrmE-4vsHcAyxVlg1d9-16">
          <mxGeometry width="50" height="50" relative="1" as="geometry">
            <mxPoint x="620" y="610" as="sourcePoint" />
            <mxPoint x="670" y="560" as="targetPoint" />
          </mxGeometry>
        </mxCell>
        <mxCell id="RfrmE-4vsHcAyxVlg1d9-69" value="" style="endArrow=none;html=1;rounded=0;entryX=0;entryY=0.5;entryDx=0;entryDy=0;strokeWidth=2;" edge="1" parent="1" source="RfrmE-4vsHcAyxVlg1d9-4" target="RfrmE-4vsHcAyxVlg1d9-26">
          <mxGeometry width="50" height="50" relative="1" as="geometry">
            <mxPoint x="620" y="610" as="sourcePoint" />
            <mxPoint x="670" y="560" as="targetPoint" />
          </mxGeometry>
        </mxCell>
        <mxCell id="RfrmE-4vsHcAyxVlg1d9-70" value="" style="endArrow=none;html=1;rounded=0;entryX=0;entryY=0.5;entryDx=0;entryDy=0;strokeWidth=2;" edge="1" parent="1" source="RfrmE-4vsHcAyxVlg1d9-4" target="RfrmE-4vsHcAyxVlg1d9-17">
          <mxGeometry width="50" height="50" relative="1" as="geometry">
            <mxPoint x="620" y="610" as="sourcePoint" />
            <mxPoint x="670" y="560" as="targetPoint" />
          </mxGeometry>
        </mxCell>
        <mxCell id="RfrmE-4vsHcAyxVlg1d9-71" value="" style="endArrow=none;html=1;rounded=0;entryX=0;entryY=0.5;entryDx=0;entryDy=0;strokeWidth=2;" edge="1" parent="1" source="RfrmE-4vsHcAyxVlg1d9-4" target="RfrmE-4vsHcAyxVlg1d9-15">
          <mxGeometry width="50" height="50" relative="1" as="geometry">
            <mxPoint x="620" y="610" as="sourcePoint" />
            <mxPoint x="670" y="560" as="targetPoint" />
          </mxGeometry>
        </mxCell>
        <mxCell id="RfrmE-4vsHcAyxVlg1d9-72" value="" style="endArrow=none;html=1;rounded=0;entryX=0;entryY=0.5;entryDx=0;entryDy=0;strokeWidth=2;" edge="1" parent="1" source="RfrmE-4vsHcAyxVlg1d9-4" target="RfrmE-4vsHcAyxVlg1d9-20">
          <mxGeometry width="50" height="50" relative="1" as="geometry">
            <mxPoint x="620" y="610" as="sourcePoint" />
            <mxPoint x="670" y="560" as="targetPoint" />
          </mxGeometry>
        </mxCell>
        <mxCell id="RfrmE-4vsHcAyxVlg1d9-73" value="" style="endArrow=none;html=1;rounded=0;entryX=0;entryY=0.5;entryDx=0;entryDy=0;strokeWidth=2;" edge="1" parent="1" source="RfrmE-4vsHcAyxVlg1d9-4" target="RfrmE-4vsHcAyxVlg1d9-25">
          <mxGeometry width="50" height="50" relative="1" as="geometry">
            <mxPoint x="620" y="610" as="sourcePoint" />
            <mxPoint x="670" y="560" as="targetPoint" />
          </mxGeometry>
        </mxCell>
        <mxCell id="RfrmE-4vsHcAyxVlg1d9-74" value="" style="endArrow=none;html=1;rounded=0;entryX=0;entryY=0.5;entryDx=0;entryDy=0;strokeWidth=2;" edge="1" parent="1" source="RfrmE-4vsHcAyxVlg1d9-4" target="RfrmE-4vsHcAyxVlg1d9-22">
          <mxGeometry width="50" height="50" relative="1" as="geometry">
            <mxPoint x="620" y="610" as="sourcePoint" />
            <mxPoint x="670" y="560" as="targetPoint" />
          </mxGeometry>
        </mxCell>
        <mxCell id="RfrmE-4vsHcAyxVlg1d9-75" value="" style="endArrow=none;html=1;rounded=0;entryX=0;entryY=0.5;entryDx=0;entryDy=0;strokeWidth=2;" edge="1" parent="1" source="RfrmE-4vsHcAyxVlg1d9-4" target="RfrmE-4vsHcAyxVlg1d9-46">
          <mxGeometry width="50" height="50" relative="1" as="geometry">
            <mxPoint x="620" y="940" as="sourcePoint" />
            <mxPoint x="670" y="890" as="targetPoint" />
          </mxGeometry>
        </mxCell>
        <mxCell id="RfrmE-4vsHcAyxVlg1d9-76" value="" style="endArrow=none;html=1;rounded=0;exitX=0;exitY=0.5;exitDx=0;exitDy=0;strokeWidth=2;" edge="1" parent="1" source="RfrmE-4vsHcAyxVlg1d9-21">
          <mxGeometry width="50" height="50" relative="1" as="geometry">
            <mxPoint x="620" y="940" as="sourcePoint" />
            <mxPoint x="160" y="390" as="targetPoint" />
          </mxGeometry>
        </mxCell>
        <mxCell id="RfrmE-4vsHcAyxVlg1d9-78" value="" style="endArrow=none;html=1;rounded=0;exitX=0;exitY=0.5;exitDx=0;exitDy=0;strokeWidth=2;" edge="1" parent="1" source="RfrmE-4vsHcAyxVlg1d9-51">
          <mxGeometry width="50" height="50" relative="1" as="geometry">
            <mxPoint x="620" y="1110" as="sourcePoint" />
            <mxPoint x="140" y="410" as="targetPoint" />
          </mxGeometry>
        </mxCell>
        <mxCell id="RfrmE-4vsHcAyxVlg1d9-79" value="" style="endArrow=none;html=1;rounded=0;exitX=0;exitY=0.5;exitDx=0;exitDy=0;strokeWidth=2;" edge="1" parent="1" source="RfrmE-4vsHcAyxVlg1d9-13">
          <mxGeometry width="50" height="50" relative="1" as="geometry">
            <mxPoint x="620" y="1270" as="sourcePoint" />
            <mxPoint x="130" y="410" as="targetPoint" />
          </mxGeometry>
        </mxCell>
        <mxCell id="RfrmE-4vsHcAyxVlg1d9-80" value="" style="endArrow=none;html=1;rounded=0;entryX=1;entryY=1;entryDx=0;entryDy=0;strokeWidth=2;" edge="1" parent="1" source="RfrmE-4vsHcAyxVlg1d9-58" target="RfrmE-4vsHcAyxVlg1d9-46">
          <mxGeometry width="50" height="50" relative="1" as="geometry">
            <mxPoint x="620" y="1270" as="sourcePoint" />
            <mxPoint x="670" y="1220" as="targetPoint" />
          </mxGeometry>
        </mxCell>
        <mxCell id="RfrmE-4vsHcAyxVlg1d9-81" value="" style="endArrow=none;html=1;rounded=0;exitX=1;exitY=0.5;exitDx=0;exitDy=0;strokeWidth=2;" edge="1" parent="1" source="RfrmE-4vsHcAyxVlg1d9-21" target="RfrmE-4vsHcAyxVlg1d9-58">
          <mxGeometry width="50" height="50" relative="1" as="geometry">
            <mxPoint x="620" y="1270" as="sourcePoint" />
            <mxPoint x="670" y="1220" as="targetPoint" />
          </mxGeometry>
        </mxCell>
        <mxCell id="RfrmE-4vsHcAyxVlg1d9-82" value="" style="endArrow=none;html=1;rounded=0;exitX=1;exitY=0.5;exitDx=0;exitDy=0;strokeWidth=2;" edge="1" parent="1" source="RfrmE-4vsHcAyxVlg1d9-51">
          <mxGeometry width="50" height="50" relative="1" as="geometry">
            <mxPoint x="620" y="1270" as="sourcePoint" />
            <mxPoint x="1550" y="1200" as="targetPoint" />
          </mxGeometry>
        </mxCell>
        <mxCell id="RfrmE-4vsHcAyxVlg1d9-83" value="" style="endArrow=none;html=1;rounded=0;exitX=1;exitY=0.5;exitDx=0;exitDy=0;strokeColor=default;strokeWidth=2;" edge="1" parent="1" source="RfrmE-4vsHcAyxVlg1d9-13" target="RfrmE-4vsHcAyxVlg1d9-58">
          <mxGeometry width="50" height="50" relative="1" as="geometry">
            <mxPoint x="620" y="1270" as="sourcePoint" />
            <mxPoint x="670" y="1220" as="targetPoint" />
          </mxGeometry>
        </mxCell>
        <mxCell id="RfrmE-4vsHcAyxVlg1d9-84" value="" style="endArrow=none;html=1;rounded=0;exitX=1;exitY=0.5;exitDx=0;exitDy=0;strokeWidth=2;" edge="1" parent="1" source="RfrmE-4vsHcAyxVlg1d9-45" target="RfrmE-4vsHcAyxVlg1d9-58">
          <mxGeometry width="50" height="50" relative="1" as="geometry">
            <mxPoint x="610" y="1660" as="sourcePoint" />
            <mxPoint x="660" y="1610" as="targetPoint" />
          </mxGeometry>
        </mxCell>
        <mxCell id="RfrmE-4vsHcAyxVlg1d9-85" value="" style="endArrow=none;html=1;rounded=0;exitX=1;exitY=0.5;exitDx=0;exitDy=0;strokeWidth=2;" edge="1" parent="1" source="RfrmE-4vsHcAyxVlg1d9-39" target="RfrmE-4vsHcAyxVlg1d9-58">
          <mxGeometry width="50" height="50" relative="1" as="geometry">
            <mxPoint x="610" y="1660" as="sourcePoint" />
            <mxPoint x="660" y="1610" as="targetPoint" />
          </mxGeometry>
        </mxCell>
        <mxCell id="RfrmE-4vsHcAyxVlg1d9-86" value="" style="endArrow=none;html=1;rounded=0;entryX=1;entryY=0.5;entryDx=0;entryDy=0;strokeWidth=2;" edge="1" parent="1" target="RfrmE-4vsHcAyxVlg1d9-33">
          <mxGeometry width="50" height="50" relative="1" as="geometry">
            <mxPoint x="1550" y="1240" as="sourcePoint" />
            <mxPoint x="660" y="1610" as="targetPoint" />
          </mxGeometry>
        </mxCell>
        <mxCell id="RfrmE-4vsHcAyxVlg1d9-87" value="" style="endArrow=none;html=1;rounded=0;entryX=1;entryY=0.5;entryDx=0;entryDy=0;strokeWidth=2;" edge="1" parent="1" target="RfrmE-4vsHcAyxVlg1d9-32">
          <mxGeometry width="50" height="50" relative="1" as="geometry">
            <mxPoint x="1540" y="1300" as="sourcePoint" />
            <mxPoint x="660" y="1610" as="targetPoint" />
          </mxGeometry>
        </mxCell>
        <mxCell id="RfrmE-4vsHcAyxVlg1d9-88" value="" style="endArrow=none;html=1;rounded=0;entryX=1;entryY=0.5;entryDx=0;entryDy=0;strokeWidth=2;" edge="1" parent="1" target="RfrmE-4vsHcAyxVlg1d9-43">
          <mxGeometry width="50" height="50" relative="1" as="geometry">
            <mxPoint x="1550" y="1310" as="sourcePoint" />
            <mxPoint x="660" y="1610" as="targetPoint" />
          </mxGeometry>
        </mxCell>
        <mxCell id="RfrmE-4vsHcAyxVlg1d9-89" value="" style="endArrow=none;html=1;rounded=0;entryX=1;entryY=0.5;entryDx=0;entryDy=0;strokeWidth=2;" edge="1" parent="1" target="RfrmE-4vsHcAyxVlg1d9-36">
          <mxGeometry width="50" height="50" relative="1" as="geometry">
            <mxPoint x="1550" y="1320" as="sourcePoint" />
            <mxPoint x="660" y="1610" as="targetPoint" />
          </mxGeometry>
        </mxCell>
        <mxCell id="RfrmE-4vsHcAyxVlg1d9-90" value="" style="endArrow=none;html=1;rounded=0;entryX=1;entryY=0.5;entryDx=0;entryDy=0;strokeWidth=2;" edge="1" parent="1" target="RfrmE-4vsHcAyxVlg1d9-42">
          <mxGeometry width="50" height="50" relative="1" as="geometry">
            <mxPoint x="1560" y="1330" as="sourcePoint" />
            <mxPoint x="660" y="1610" as="targetPoint" />
          </mxGeometry>
        </mxCell>
        <mxCell id="RfrmE-4vsHcAyxVlg1d9-91" value="" style="endArrow=none;html=1;rounded=0;entryX=1;entryY=0.5;entryDx=0;entryDy=0;strokeWidth=2;" edge="1" parent="1" target="RfrmE-4vsHcAyxVlg1d9-31">
          <mxGeometry width="50" height="50" relative="1" as="geometry">
            <mxPoint x="1580" y="1330" as="sourcePoint" />
            <mxPoint x="660" y="1610" as="targetPoint" />
          </mxGeometry>
        </mxCell>
        <mxCell id="RfrmE-4vsHcAyxVlg1d9-92" value="" style="endArrow=none;html=1;rounded=0;entryX=1;entryY=0.5;entryDx=0;entryDy=0;strokeWidth=2;" edge="1" parent="1" target="RfrmE-4vsHcAyxVlg1d9-37">
          <mxGeometry width="50" height="50" relative="1" as="geometry">
            <mxPoint x="1590" y="1340" as="sourcePoint" />
            <mxPoint x="660" y="1610" as="targetPoint" />
          </mxGeometry>
        </mxCell>
        <mxCell id="RfrmE-4vsHcAyxVlg1d9-93" value="" style="endArrow=none;html=1;rounded=0;entryX=1;entryY=0.5;entryDx=0;entryDy=0;strokeWidth=2;" edge="1" parent="1" target="RfrmE-4vsHcAyxVlg1d9-38">
          <mxGeometry width="50" height="50" relative="1" as="geometry">
            <mxPoint x="1610" y="1330" as="sourcePoint" />
            <mxPoint x="660" y="1810" as="targetPoint" />
          </mxGeometry>
        </mxCell>
        <mxCell id="RfrmE-4vsHcAyxVlg1d9-94" value="" style="endArrow=none;html=1;rounded=0;entryX=1;entryY=0.5;entryDx=0;entryDy=0;strokeWidth=2;" edge="1" parent="1" target="RfrmE-4vsHcAyxVlg1d9-35">
          <mxGeometry width="50" height="50" relative="1" as="geometry">
            <mxPoint x="1610" y="1350" as="sourcePoint" />
            <mxPoint x="660" y="1810" as="targetPoint" />
          </mxGeometry>
        </mxCell>
        <mxCell id="RfrmE-4vsHcAyxVlg1d9-95" value="" style="endArrow=none;html=1;rounded=0;entryX=1;entryY=0.5;entryDx=0;entryDy=0;strokeWidth=2;" edge="1" parent="1" target="RfrmE-4vsHcAyxVlg1d9-12">
          <mxGeometry width="50" height="50" relative="1" as="geometry">
            <mxPoint x="1530" y="1160" as="sourcePoint" />
            <mxPoint x="550" y="750" as="targetPoint" />
          </mxGeometry>
        </mxCell>
      </root>
    </mxGraphModel>
  </diagram>
  <diagram id="w6YnBTCW0rvJG-JeiRne" name="Page-2">
    <mxGraphModel dx="5603" dy="2703" grid="1" gridSize="11" guides="1" tooltips="1" connect="1" arrows="1" fold="1" page="1" pageScale="1" pageWidth="850" pageHeight="1100" math="0" shadow="0">
      <root>
        <mxCell id="0" />
        <mxCell id="1" parent="0" />
        <mxCell id="q8E49kU9VPwSmF2rlxvp-135" value="" style="rounded=0;whiteSpace=wrap;html=1;fillColor=#CCE5FF;movable=1;resizable=1;rotatable=1;deletable=1;editable=1;locked=0;connectable=1;" parent="1" vertex="1">
          <mxGeometry x="-435" y="770" width="2574" height="4048" as="geometry" />
        </mxCell>
        <mxCell id="ktxHKE0SK9M4vjjQdF8--57" value="" style="rounded=0;whiteSpace=wrap;html=1;fillColor=#FFCCFF;" vertex="1" parent="1">
          <mxGeometry x="-187" y="3091" width="2233" height="1452" as="geometry" />
        </mxCell>
        <mxCell id="q8E49kU9VPwSmF2rlxvp-136" value="" style="rounded=0;whiteSpace=wrap;html=1;fillColor=#FFE6CC;movable=1;resizable=1;rotatable=1;deletable=1;editable=1;locked=0;connectable=1;" parent="1" vertex="1">
          <mxGeometry x="-302" y="1243" width="2343" height="1815" as="geometry" />
        </mxCell>
        <mxCell id="q8E49kU9VPwSmF2rlxvp-137" value="" style="rounded=0;whiteSpace=wrap;html=1;fillColor=#CCFFE6;movable=1;resizable=1;rotatable=1;deletable=1;editable=1;locked=0;connectable=1;" parent="1" vertex="1">
          <mxGeometry x="-258" y="2618" width="2266" height="341" as="geometry" />
        </mxCell>
        <mxCell id="v47Y5rncs2J2Nctxpbsa-1" value="&lt;font style=&quot;font-size: 24px;&quot; face=&quot;Times New Roman&quot;&gt;&lt;b&gt;User&lt;/b&gt;&lt;/font&gt;" style="rounded=1;whiteSpace=wrap;html=1;fillColor=#BBE9FF;strokeWidth=3;" parent="1" vertex="1">
          <mxGeometry x="-194" y="177" width="132" height="44" as="geometry" />
        </mxCell>
        <mxCell id="h13KpCpvEOYY8XeO8HOG-1" value="&lt;font style=&quot;color: rgb(102, 0, 0); font-size: 72px;&quot; face=&quot;Times New Roman&quot;&gt;&lt;b style=&quot;&quot;&gt;Mini Bank System - Sequence Diagram&lt;/b&gt;&lt;/font&gt;" style="text;html=1;align=center;verticalAlign=middle;whiteSpace=wrap;rounded=0;" parent="1" vertex="1">
          <mxGeometry x="44" y="38" width="1525" height="50" as="geometry" />
        </mxCell>
        <mxCell id="h13KpCpvEOYY8XeO8HOG-2" value="&lt;font style=&quot;font-size: 24px;&quot; face=&quot;Times New Roman&quot;&gt;&lt;b&gt;FileSystem&lt;/b&gt;&lt;/font&gt;" style="rounded=1;whiteSpace=wrap;html=1;fillColor=#FFCE9F;strokeWidth=3;" parent="1" vertex="1">
          <mxGeometry x="510" y="177" width="132" height="44" as="geometry" />
        </mxCell>
        <mxCell id="h13KpCpvEOYY8XeO8HOG-3" value="&lt;font style=&quot;font-size: 24px;&quot; face=&quot;Times New Roman&quot;&gt;&lt;b&gt;System&lt;/b&gt;&lt;/font&gt;" style="rounded=1;whiteSpace=wrap;html=1;fillColor=#C8FFD2;strokeWidth=3;" parent="1" vertex="1">
          <mxGeometry x="158" y="177" width="132" height="44" as="geometry" />
        </mxCell>
        <mxCell id="h13KpCpvEOYY8XeO8HOG-4" value="&lt;font style=&quot;font-size: 24px;&quot; face=&quot;Times New Roman&quot;&gt;&lt;b&gt;Admin&lt;/b&gt;&lt;/font&gt;" style="rounded=1;whiteSpace=wrap;html=1;fillColor=#CC99FF;strokeWidth=3;" parent="1" vertex="1">
          <mxGeometry x="861" y="177" width="132" height="44" as="geometry" />
        </mxCell>
        <mxCell id="h13KpCpvEOYY8XeO8HOG-5" value="&lt;font style=&quot;font-size: 24px;&quot; face=&quot;Times New Roman&quot;&gt;&lt;b&gt;Queue&lt;/b&gt;&lt;/font&gt;" style="rounded=1;whiteSpace=wrap;html=1;fillColor=#FFCE9F;strokeWidth=3;" parent="1" vertex="1">
          <mxGeometry x="1214" y="177" width="132" height="44" as="geometry" />
        </mxCell>
        <mxCell id="h13KpCpvEOYY8XeO8HOG-6" value="&lt;font style=&quot;font-size: 24px;&quot; face=&quot;Times New Roman&quot;&gt;&lt;b&gt;Stack&lt;/b&gt;&lt;/font&gt;" style="rounded=1;whiteSpace=wrap;html=1;fillColor=#FFCE9F;strokeWidth=3;" parent="1" vertex="1">
          <mxGeometry x="1566" y="177" width="132" height="44" as="geometry" />
        </mxCell>
        <mxCell id="h13KpCpvEOYY8XeO8HOG-7" value="&lt;font style=&quot;font-size: 24px;&quot; face=&quot;Times New Roman&quot;&gt;&lt;b&gt;List&lt;/b&gt;&lt;/font&gt;" style="rounded=1;whiteSpace=wrap;html=1;fillColor=#FFCE9F;strokeWidth=3;" parent="1" vertex="1">
          <mxGeometry x="1918" y="177" width="132" height="44" as="geometry" />
        </mxCell>
        <mxCell id="h13KpCpvEOYY8XeO8HOG-8" value="" style="endArrow=none;html=1;rounded=0;entryX=0.5;entryY=1;entryDx=0;entryDy=0;strokeWidth=4;endSize=4;" parent="1" target="v47Y5rncs2J2Nctxpbsa-1" edge="1">
          <mxGeometry width="50" height="50" relative="1" as="geometry">
            <mxPoint x="-128" y="5412" as="sourcePoint" />
            <mxPoint x="143" y="352" as="targetPoint" />
          </mxGeometry>
        </mxCell>
        <mxCell id="h13KpCpvEOYY8XeO8HOG-9" value="" style="endArrow=none;html=1;rounded=0;entryX=0.5;entryY=1;entryDx=0;entryDy=0;strokeWidth=4;endSize=4;" parent="1" target="h13KpCpvEOYY8XeO8HOG-3" edge="1">
          <mxGeometry width="50" height="50" relative="1" as="geometry">
            <mxPoint x="220" y="5412" as="sourcePoint" />
            <mxPoint x="236" y="231" as="targetPoint" />
          </mxGeometry>
        </mxCell>
        <mxCell id="h13KpCpvEOYY8XeO8HOG-10" value="" style="endArrow=none;html=1;rounded=0;entryX=0.5;entryY=1;entryDx=0;entryDy=0;strokeWidth=4;endSize=4;" parent="1" target="h13KpCpvEOYY8XeO8HOG-2" edge="1">
          <mxGeometry width="50" height="50" relative="1" as="geometry">
            <mxPoint x="594" y="5401" as="sourcePoint" />
            <mxPoint x="574.5699999999999" y="275" as="targetPoint" />
          </mxGeometry>
        </mxCell>
        <mxCell id="h13KpCpvEOYY8XeO8HOG-11" value="" style="endArrow=none;html=1;rounded=0;entryX=0.5;entryY=1;entryDx=0;entryDy=0;strokeWidth=4;endSize=4;" parent="1" target="h13KpCpvEOYY8XeO8HOG-4" edge="1">
          <mxGeometry width="50" height="50" relative="1" as="geometry">
            <mxPoint x="940" y="5412" as="sourcePoint" />
            <mxPoint x="926" y="231" as="targetPoint" />
          </mxGeometry>
        </mxCell>
        <mxCell id="h13KpCpvEOYY8XeO8HOG-12" value="" style="endArrow=none;html=1;rounded=0;entryX=0.5;entryY=1;entryDx=0;entryDy=0;strokeWidth=4;endSize=4;" parent="1" target="h13KpCpvEOYY8XeO8HOG-5" edge="1">
          <mxGeometry width="50" height="50" relative="1" as="geometry">
            <mxPoint x="1280" y="5412" as="sourcePoint" />
            <mxPoint x="1279" y="231" as="targetPoint" />
          </mxGeometry>
        </mxCell>
        <mxCell id="h13KpCpvEOYY8XeO8HOG-13" value="" style="endArrow=none;html=1;rounded=0;entryX=0.5;entryY=1;entryDx=0;entryDy=0;strokeWidth=4;endSize=4;" parent="1" target="h13KpCpvEOYY8XeO8HOG-6" edge="1">
          <mxGeometry width="50" height="50" relative="1" as="geometry">
            <mxPoint x="1632" y="5412" as="sourcePoint" />
            <mxPoint x="1631.29" y="253" as="targetPoint" />
          </mxGeometry>
        </mxCell>
        <mxCell id="h13KpCpvEOYY8XeO8HOG-14" value="" style="endArrow=none;html=1;rounded=0;entryX=0.5;entryY=1;entryDx=0;entryDy=0;strokeWidth=4;endSize=4;" parent="1" target="h13KpCpvEOYY8XeO8HOG-7" edge="1">
          <mxGeometry width="50" height="50" relative="1" as="geometry">
            <mxPoint x="1980" y="5401" as="sourcePoint" />
            <mxPoint x="1983.29" y="231" as="targetPoint" />
          </mxGeometry>
        </mxCell>
        <mxCell id="h13KpCpvEOYY8XeO8HOG-15" value="" style="endArrow=classic;html=1;rounded=0;" parent="1" edge="1">
          <mxGeometry width="50" height="50" relative="1" as="geometry">
            <mxPoint x="-127" y="308" as="sourcePoint" />
            <mxPoint x="225" y="308" as="targetPoint" />
          </mxGeometry>
        </mxCell>
        <mxCell id="h13KpCpvEOYY8XeO8HOG-16" value="&lt;b&gt;Start application&lt;/b&gt;" style="text;html=1;align=center;verticalAlign=middle;whiteSpace=wrap;rounded=0;" parent="1" vertex="1">
          <mxGeometry x="-28" y="275" width="99" height="30" as="geometry" />
        </mxCell>
        <mxCell id="h13KpCpvEOYY8XeO8HOG-17" value="" style="endArrow=classic;html=1;rounded=0;" parent="1" edge="1">
          <mxGeometry width="50" height="50" relative="1" as="geometry">
            <mxPoint x="225" y="339" as="sourcePoint" />
            <mxPoint x="577" y="339" as="targetPoint" />
          </mxGeometry>
        </mxCell>
        <mxCell id="h13KpCpvEOYY8XeO8HOG-18" value="" style="endArrow=classic;html=1;rounded=0;" parent="1" edge="1">
          <mxGeometry width="50" height="50" relative="1" as="geometry">
            <mxPoint x="225" y="603" as="sourcePoint" />
            <mxPoint x="577" y="603" as="targetPoint" />
          </mxGeometry>
        </mxCell>
        <mxCell id="h13KpCpvEOYY8XeO8HOG-19" value="" style="endArrow=classic;html=1;rounded=0;" parent="1" edge="1">
          <mxGeometry width="50" height="50" relative="1" as="geometry">
            <mxPoint x="225" y="570" as="sourcePoint" />
            <mxPoint x="577" y="570" as="targetPoint" />
          </mxGeometry>
        </mxCell>
        <mxCell id="h13KpCpvEOYY8XeO8HOG-20" value="" style="endArrow=classic;html=1;rounded=0;" parent="1" edge="1">
          <mxGeometry width="50" height="50" relative="1" as="geometry">
            <mxPoint x="225" y="537" as="sourcePoint" />
            <mxPoint x="577" y="537" as="targetPoint" />
          </mxGeometry>
        </mxCell>
        <mxCell id="h13KpCpvEOYY8XeO8HOG-21" value="" style="endArrow=classic;html=1;rounded=0;" parent="1" edge="1">
          <mxGeometry width="50" height="50" relative="1" as="geometry">
            <mxPoint x="225" y="503" as="sourcePoint" />
            <mxPoint x="577" y="503" as="targetPoint" />
          </mxGeometry>
        </mxCell>
        <mxCell id="h13KpCpvEOYY8XeO8HOG-22" value="" style="endArrow=classic;html=1;rounded=0;" parent="1" edge="1">
          <mxGeometry width="50" height="50" relative="1" as="geometry">
            <mxPoint x="225" y="471" as="sourcePoint" />
            <mxPoint x="577" y="471" as="targetPoint" />
          </mxGeometry>
        </mxCell>
        <mxCell id="h13KpCpvEOYY8XeO8HOG-23" value="" style="endArrow=classic;html=1;rounded=0;" parent="1" edge="1">
          <mxGeometry width="50" height="50" relative="1" as="geometry">
            <mxPoint x="225" y="438" as="sourcePoint" />
            <mxPoint x="577" y="438" as="targetPoint" />
          </mxGeometry>
        </mxCell>
        <mxCell id="h13KpCpvEOYY8XeO8HOG-24" value="" style="endArrow=classic;html=1;rounded=0;" parent="1" edge="1">
          <mxGeometry width="50" height="50" relative="1" as="geometry">
            <mxPoint x="225" y="405" as="sourcePoint" />
            <mxPoint x="577" y="405" as="targetPoint" />
          </mxGeometry>
        </mxCell>
        <mxCell id="h13KpCpvEOYY8XeO8HOG-25" value="" style="endArrow=classic;html=1;rounded=0;" parent="1" edge="1">
          <mxGeometry width="50" height="50" relative="1" as="geometry">
            <mxPoint x="225" y="372" as="sourcePoint" />
            <mxPoint x="577" y="372" as="targetPoint" />
          </mxGeometry>
        </mxCell>
        <mxCell id="h13KpCpvEOYY8XeO8HOG-26" value="&lt;b&gt;LoadAccountsInformationFromFile&lt;/b&gt;" style="text;html=1;align=center;verticalAlign=middle;whiteSpace=wrap;rounded=0;" parent="1" vertex="1">
          <mxGeometry x="335" y="306" width="99" height="30" as="geometry" />
        </mxCell>
        <mxCell id="h13KpCpvEOYY8XeO8HOG-27" value="&lt;b&gt;LoadRatingsFromFile&lt;/b&gt;" style="text;html=1;align=center;verticalAlign=middle;whiteSpace=wrap;rounded=0;" parent="1" vertex="1">
          <mxGeometry x="335" y="570" width="99" height="30" as="geometry" />
        </mxCell>
        <mxCell id="h13KpCpvEOYY8XeO8HOG-28" value="&lt;b&gt;LoadTransactionsFromFile&lt;/b&gt;" style="text;html=1;align=center;verticalAlign=middle;whiteSpace=wrap;rounded=0;" parent="1" vertex="1">
          <mxGeometry x="335" y="536" width="99" height="30" as="geometry" />
        </mxCell>
        <mxCell id="h13KpCpvEOYY8XeO8HOG-29" value="&lt;b&gt;LoadLockedAccounts&lt;/b&gt;" style="text;html=1;align=center;verticalAlign=middle;whiteSpace=wrap;rounded=0;" parent="1" vertex="1">
          <mxGeometry x="335" y="504" width="99" height="30" as="geometry" />
        </mxCell>
        <mxCell id="h13KpCpvEOYY8XeO8HOG-30" value="&lt;b&gt;LoadLoginAdminFromFile&lt;/b&gt;" style="text;html=1;align=center;verticalAlign=middle;whiteSpace=wrap;rounded=0;" parent="1" vertex="1">
          <mxGeometry x="335" y="474" width="99" height="30" as="geometry" />
        </mxCell>
        <mxCell id="h13KpCpvEOYY8XeO8HOG-31" value="&lt;b&gt;LoadLoginUserFromFile&lt;/b&gt;" style="text;html=1;align=center;verticalAlign=middle;whiteSpace=wrap;rounded=0;" parent="1" vertex="1">
          <mxGeometry x="335" y="443" width="99" height="30" as="geometry" />
        </mxCell>
        <mxCell id="h13KpCpvEOYY8XeO8HOG-32" value="&lt;b&gt;LoadSaveRequestAccountOpening&lt;/b&gt;" style="text;html=1;align=center;verticalAlign=middle;whiteSpace=wrap;rounded=0;" parent="1" vertex="1">
          <mxGeometry x="335" y="413" width="99" height="30" as="geometry" />
        </mxCell>
        <mxCell id="h13KpCpvEOYY8XeO8HOG-33" value="&lt;b&gt;LoadReviewsNationalId&lt;/b&gt;" style="text;html=1;align=center;verticalAlign=middle;whiteSpace=wrap;rounded=0;" parent="1" vertex="1">
          <mxGeometry x="335" y="383" width="99" height="30" as="geometry" />
        </mxCell>
        <mxCell id="h13KpCpvEOYY8XeO8HOG-34" value="&lt;b&gt;LoadReviews&lt;/b&gt;" style="text;html=1;align=center;verticalAlign=middle;whiteSpace=wrap;rounded=0;" parent="1" vertex="1">
          <mxGeometry x="335" y="347" width="99" height="30" as="geometry" />
        </mxCell>
        <mxCell id="h13KpCpvEOYY8XeO8HOG-36" value="" style="endArrow=classic;html=1;rounded=0;" parent="1" edge="1">
          <mxGeometry width="50" height="50" relative="1" as="geometry">
            <mxPoint x="225" y="735" as="sourcePoint" />
            <mxPoint x="577" y="735" as="targetPoint" />
          </mxGeometry>
        </mxCell>
        <mxCell id="h13KpCpvEOYY8XeO8HOG-37" value="" style="endArrow=classic;html=1;rounded=0;" parent="1" edge="1">
          <mxGeometry width="50" height="50" relative="1" as="geometry">
            <mxPoint x="225" y="702" as="sourcePoint" />
            <mxPoint x="577" y="702" as="targetPoint" />
          </mxGeometry>
        </mxCell>
        <mxCell id="h13KpCpvEOYY8XeO8HOG-38" value="" style="endArrow=classic;html=1;rounded=0;" parent="1" edge="1">
          <mxGeometry width="50" height="50" relative="1" as="geometry">
            <mxPoint x="225" y="669" as="sourcePoint" />
            <mxPoint x="577" y="669" as="targetPoint" />
          </mxGeometry>
        </mxCell>
        <mxCell id="h13KpCpvEOYY8XeO8HOG-39" value="" style="endArrow=classic;html=1;rounded=0;" parent="1" edge="1">
          <mxGeometry width="50" height="50" relative="1" as="geometry">
            <mxPoint x="225" y="636" as="sourcePoint" />
            <mxPoint x="577" y="636" as="targetPoint" />
          </mxGeometry>
        </mxCell>
        <mxCell id="h13KpCpvEOYY8XeO8HOG-40" value="&lt;b&gt;LoadRequestLoanFromFile&lt;/b&gt;" style="text;html=1;align=center;verticalAlign=middle;whiteSpace=wrap;rounded=0;" parent="1" vertex="1">
          <mxGeometry x="335" y="604" width="99" height="30" as="geometry" />
        </mxCell>
        <mxCell id="h13KpCpvEOYY8XeO8HOG-41" value="&lt;b&gt;LoadActiveConsultationFromFile&lt;/b&gt;" style="text;html=1;align=center;verticalAlign=middle;whiteSpace=wrap;rounded=0;" parent="1" vertex="1">
          <mxGeometry x="335" y="702" width="99" height="30" as="geometry" />
        </mxCell>
        <mxCell id="h13KpCpvEOYY8XeO8HOG-42" value="&lt;b&gt;LoadRequestConsultationFromFile&lt;/b&gt;" style="text;html=1;align=center;verticalAlign=middle;whiteSpace=wrap;rounded=0;" parent="1" vertex="1">
          <mxGeometry x="335" y="666" width="99" height="30" as="geometry" />
        </mxCell>
        <mxCell id="h13KpCpvEOYY8XeO8HOG-43" value="&lt;b&gt;LoadActiveLoansFromFile&lt;/b&gt;" style="text;html=1;align=center;verticalAlign=middle;whiteSpace=wrap;rounded=0;" parent="1" vertex="1">
          <mxGeometry x="335" y="636" width="99" height="30" as="geometry" />
        </mxCell>
        <mxCell id="h13KpCpvEOYY8XeO8HOG-44" value="" style="endArrow=classic;html=1;rounded=0;" parent="1" edge="1">
          <mxGeometry width="50" height="50" relative="1" as="geometry">
            <mxPoint x="-127" y="836" as="sourcePoint" />
            <mxPoint x="225" y="836" as="targetPoint" />
          </mxGeometry>
        </mxCell>
        <mxCell id="h13KpCpvEOYY8XeO8HOG-45" value="&lt;b&gt;Select option (SingUp, LogIn, LogOut)&lt;/b&gt;" style="text;html=1;align=center;verticalAlign=middle;whiteSpace=wrap;rounded=0;" parent="1" vertex="1">
          <mxGeometry x="-116" y="803" width="308" height="30" as="geometry" />
        </mxCell>
        <mxCell id="h13KpCpvEOYY8XeO8HOG-46" value="" style="endArrow=classic;html=1;rounded=0;" parent="1" edge="1">
          <mxGeometry width="50" height="50" relative="1" as="geometry">
            <mxPoint x="-127" y="880" as="sourcePoint" />
            <mxPoint x="225" y="880" as="targetPoint" />
          </mxGeometry>
        </mxCell>
        <mxCell id="h13KpCpvEOYY8XeO8HOG-47" value="&lt;b&gt;Enter NationalID and Password&lt;/b&gt;" style="text;html=1;align=center;verticalAlign=middle;whiteSpace=wrap;rounded=0;" parent="1" vertex="1">
          <mxGeometry x="-116" y="847" width="308" height="30" as="geometry" />
        </mxCell>
        <mxCell id="h13KpCpvEOYY8XeO8HOG-52" value="" style="endArrow=classic;html=1;rounded=0;edgeStyle=orthogonalEdgeStyle;" parent="1" edge="1">
          <mxGeometry width="50" height="50" relative="1" as="geometry">
            <mxPoint x="224" y="913" as="sourcePoint" />
            <mxPoint x="224" y="1001" as="targetPoint" />
            <Array as="points">
              <mxPoint x="290" y="1001" />
            </Array>
          </mxGeometry>
        </mxCell>
        <mxCell id="h13KpCpvEOYY8XeO8HOG-53" value="&lt;b&gt;Main Menu&lt;/b&gt;" style="html=1;verticalAlign=bottom;startArrow=circle;startFill=1;endArrow=open;startSize=6;endSize=8;curved=0;rounded=0;" parent="1" edge="1">
          <mxGeometry width="80" relative="1" as="geometry">
            <mxPoint x="-358" y="822" as="sourcePoint" />
            <mxPoint x="-128" y="822" as="targetPoint" />
          </mxGeometry>
        </mxCell>
        <mxCell id="h13KpCpvEOYY8XeO8HOG-54" value="&lt;b&gt;Valid if the National ID and Password is unique&lt;/b&gt;" style="text;html=1;align=center;verticalAlign=middle;whiteSpace=wrap;rounded=0;" parent="1" vertex="1">
          <mxGeometry x="295" y="948" width="60" height="30" as="geometry" />
        </mxCell>
        <mxCell id="h13KpCpvEOYY8XeO8HOG-56" value="&lt;b&gt;Sing Up&lt;/b&gt;" style="html=1;verticalAlign=bottom;startArrow=circle;startFill=1;endArrow=open;startSize=6;endSize=8;curved=0;rounded=0;" parent="1" edge="1">
          <mxGeometry width="80" relative="1" as="geometry">
            <mxPoint x="-358" y="869" as="sourcePoint" />
            <mxPoint x="-128" y="869" as="targetPoint" />
          </mxGeometry>
        </mxCell>
        <mxCell id="h13KpCpvEOYY8XeO8HOG-57" value="" style="endArrow=classic;html=1;rounded=0;" parent="1" edge="1">
          <mxGeometry width="50" height="50" relative="1" as="geometry">
            <mxPoint x="225" y="1034" as="sourcePoint" />
            <mxPoint x="1985" y="1034" as="targetPoint" />
          </mxGeometry>
        </mxCell>
        <mxCell id="q8E49kU9VPwSmF2rlxvp-1" value="&lt;b&gt;Store use data&lt;/b&gt;" style="text;html=1;align=center;verticalAlign=middle;whiteSpace=wrap;rounded=0;" parent="1" vertex="1">
          <mxGeometry x="280" y="1012" width="308" height="30" as="geometry" />
        </mxCell>
        <mxCell id="q8E49kU9VPwSmF2rlxvp-3" value="" style="endArrow=classic;html=1;rounded=0;dashed=1;" parent="1" edge="1">
          <mxGeometry width="50" height="50" relative="1" as="geometry">
            <mxPoint x="225" y="1045" as="sourcePoint" />
            <mxPoint x="-127" y="1045" as="targetPoint" />
          </mxGeometry>
        </mxCell>
        <mxCell id="q8E49kU9VPwSmF2rlxvp-4" value="&lt;b&gt;Sing Up Successful&lt;/b&gt;" style="text;html=1;align=center;verticalAlign=middle;whiteSpace=wrap;rounded=0;" parent="1" vertex="1">
          <mxGeometry x="-116" y="1023" width="308" height="30" as="geometry" />
        </mxCell>
        <mxCell id="q8E49kU9VPwSmF2rlxvp-5" value="" style="endArrow=none;html=1;rounded=0;dashed=1;dashPattern=8 8;" parent="1" edge="1">
          <mxGeometry width="50" height="50" relative="1" as="geometry">
            <mxPoint x="-127" y="1078" as="sourcePoint" />
            <mxPoint x="1985" y="1078" as="targetPoint" />
          </mxGeometry>
        </mxCell>
        <mxCell id="q8E49kU9VPwSmF2rlxvp-6" value="&lt;b&gt;Log In&lt;/b&gt;" style="html=1;verticalAlign=bottom;startArrow=circle;startFill=1;endArrow=open;startSize=6;endSize=8;curved=0;rounded=0;" parent="1" edge="1">
          <mxGeometry width="80" relative="1" as="geometry">
            <mxPoint x="-358" y="1111" as="sourcePoint" />
            <mxPoint x="-129" y="1111" as="targetPoint" />
          </mxGeometry>
        </mxCell>
        <mxCell id="q8E49kU9VPwSmF2rlxvp-7" value="" style="endArrow=classic;html=1;rounded=0;" parent="1" edge="1">
          <mxGeometry width="50" height="50" relative="1" as="geometry">
            <mxPoint x="-127" y="1144" as="sourcePoint" />
            <mxPoint x="225" y="1144" as="targetPoint" />
          </mxGeometry>
        </mxCell>
        <mxCell id="q8E49kU9VPwSmF2rlxvp-8" value="&lt;b&gt;Enter NationalID and Password and UserType&lt;/b&gt;" style="text;html=1;align=center;verticalAlign=middle;whiteSpace=wrap;rounded=0;" parent="1" vertex="1">
          <mxGeometry x="-116" y="1111" width="308" height="30" as="geometry" />
        </mxCell>
        <mxCell id="q8E49kU9VPwSmF2rlxvp-9" value="" style="endArrow=classic;html=1;rounded=0;" parent="1" edge="1">
          <mxGeometry width="50" height="50" relative="1" as="geometry">
            <mxPoint x="225" y="1163" as="sourcePoint" />
            <mxPoint x="1985" y="1163" as="targetPoint" />
          </mxGeometry>
        </mxCell>
        <mxCell id="q8E49kU9VPwSmF2rlxvp-10" value="&lt;b&gt;Validate User Input&lt;/b&gt;" style="text;html=1;align=center;verticalAlign=middle;whiteSpace=wrap;rounded=0;" parent="1" vertex="1">
          <mxGeometry x="280" y="1141" width="308" height="30" as="geometry" />
        </mxCell>
        <mxCell id="q8E49kU9VPwSmF2rlxvp-11" value="" style="endArrow=classic;html=1;rounded=0;dashed=1;" parent="1" edge="1">
          <mxGeometry width="50" height="50" relative="1" as="geometry">
            <mxPoint x="225" y="1188" as="sourcePoint" />
            <mxPoint x="-127" y="1188" as="targetPoint" />
          </mxGeometry>
        </mxCell>
        <mxCell id="q8E49kU9VPwSmF2rlxvp-12" value="&lt;b&gt;User is Locked&lt;/b&gt;" style="text;html=1;align=center;verticalAlign=middle;whiteSpace=wrap;rounded=0;" parent="1" vertex="1">
          <mxGeometry x="-116" y="1166" width="308" height="30" as="geometry" />
        </mxCell>
        <mxCell id="q8E49kU9VPwSmF2rlxvp-13" value="" style="endArrow=none;html=1;rounded=0;dashed=1;dashPattern=8 8;" parent="1" edge="1">
          <mxGeometry width="50" height="50" relative="1" as="geometry">
            <mxPoint x="-129" y="1206" as="sourcePoint" />
            <mxPoint x="1983" y="1206" as="targetPoint" />
          </mxGeometry>
        </mxCell>
        <mxCell id="q8E49kU9VPwSmF2rlxvp-14" value="" style="endArrow=classic;html=1;rounded=0;" parent="1" edge="1">
          <mxGeometry width="50" height="50" relative="1" as="geometry">
            <mxPoint x="224" y="1229" as="sourcePoint" />
            <mxPoint x="-128" y="1229" as="targetPoint" />
          </mxGeometry>
        </mxCell>
        <mxCell id="q8E49kU9VPwSmF2rlxvp-15" value="&lt;b&gt;Show user menu&lt;/b&gt;" style="text;html=1;align=center;verticalAlign=middle;whiteSpace=wrap;rounded=0;" parent="1" vertex="1">
          <mxGeometry x="-116" y="1207" width="308" height="30" as="geometry" />
        </mxCell>
        <mxCell id="q8E49kU9VPwSmF2rlxvp-17" value="" style="endArrow=classic;html=1;rounded=0;" parent="1" edge="1">
          <mxGeometry width="50" height="50" relative="1" as="geometry">
            <mxPoint x="-127" y="1309" as="sourcePoint" />
            <mxPoint x="225" y="1309" as="targetPoint" />
          </mxGeometry>
        </mxCell>
        <mxCell id="q8E49kU9VPwSmF2rlxvp-18" value="&lt;b&gt;Select Option&lt;/b&gt;" style="text;html=1;align=center;verticalAlign=middle;whiteSpace=wrap;rounded=0;" parent="1" vertex="1">
          <mxGeometry x="-116" y="1276" width="308" height="30" as="geometry" />
        </mxCell>
        <mxCell id="q8E49kU9VPwSmF2rlxvp-19" value="&lt;b&gt;Reguest account opening&lt;/b&gt;" style="html=1;verticalAlign=bottom;startArrow=circle;startFill=1;endArrow=open;startSize=6;endSize=8;curved=0;rounded=0;" parent="1" edge="1">
          <mxGeometry x="0.0132" y="11" width="80" relative="1" as="geometry">
            <mxPoint x="-281" y="1331" as="sourcePoint" />
            <mxPoint x="-129" y="1331" as="targetPoint" />
            <mxPoint as="offset" />
          </mxGeometry>
        </mxCell>
        <mxCell id="q8E49kU9VPwSmF2rlxvp-20" value="" style="endArrow=classic;html=1;rounded=0;" parent="1" edge="1">
          <mxGeometry width="50" height="50" relative="1" as="geometry">
            <mxPoint x="-127" y="1353" as="sourcePoint" />
            <mxPoint x="225" y="1353" as="targetPoint" />
          </mxGeometry>
        </mxCell>
        <mxCell id="q8E49kU9VPwSmF2rlxvp-21" value="&lt;b&gt;Enter Account Details&lt;/b&gt;" style="text;html=1;align=center;verticalAlign=middle;whiteSpace=wrap;rounded=0;" parent="1" vertex="1">
          <mxGeometry x="-116" y="1320" width="308" height="30" as="geometry" />
        </mxCell>
        <mxCell id="q8E49kU9VPwSmF2rlxvp-22" value="" style="endArrow=classic;html=1;rounded=0;" parent="1" edge="1">
          <mxGeometry width="50" height="50" relative="1" as="geometry">
            <mxPoint x="225" y="1375" as="sourcePoint" />
            <mxPoint x="1281" y="1375" as="targetPoint" />
          </mxGeometry>
        </mxCell>
        <mxCell id="q8E49kU9VPwSmF2rlxvp-23" value="&lt;b&gt;Save Request Account Open into Queue&lt;/b&gt;" style="text;html=1;align=center;verticalAlign=middle;whiteSpace=wrap;rounded=0;" parent="1" vertex="1">
          <mxGeometry x="236" y="1342" width="308" height="30" as="geometry" />
        </mxCell>
        <mxCell id="q8E49kU9VPwSmF2rlxvp-24" value="" style="endArrow=classic;html=1;rounded=0;dashed=1;" parent="1" edge="1">
          <mxGeometry width="50" height="50" relative="1" as="geometry">
            <mxPoint x="225" y="1397" as="sourcePoint" />
            <mxPoint x="-127" y="1397" as="targetPoint" />
          </mxGeometry>
        </mxCell>
        <mxCell id="q8E49kU9VPwSmF2rlxvp-25" value="&lt;b&gt;Request Submit&lt;/b&gt;" style="text;html=1;align=center;verticalAlign=middle;whiteSpace=wrap;rounded=0;" parent="1" vertex="1">
          <mxGeometry x="-116" y="1375" width="308" height="30" as="geometry" />
        </mxCell>
        <mxCell id="q8E49kU9VPwSmF2rlxvp-26" value="" style="endArrow=none;html=1;rounded=0;dashed=1;dashPattern=8 8;" parent="1" edge="1">
          <mxGeometry width="50" height="50" relative="1" as="geometry">
            <mxPoint x="-129" y="1430" as="sourcePoint" />
            <mxPoint x="1983" y="1430" as="targetPoint" />
          </mxGeometry>
        </mxCell>
        <mxCell id="q8E49kU9VPwSmF2rlxvp-27" value="&lt;b&gt;Deposite money&lt;/b&gt;" style="html=1;verticalAlign=bottom;startArrow=circle;startFill=1;endArrow=open;startSize=6;endSize=8;curved=0;rounded=0;" parent="1" edge="1">
          <mxGeometry x="0.0132" y="11" width="80" relative="1" as="geometry">
            <mxPoint x="-281" y="1463" as="sourcePoint" />
            <mxPoint x="-129" y="1463" as="targetPoint" />
            <mxPoint as="offset" />
          </mxGeometry>
        </mxCell>
        <mxCell id="q8E49kU9VPwSmF2rlxvp-28" value="" style="endArrow=classic;html=1;rounded=0;" parent="1" edge="1">
          <mxGeometry width="50" height="50" relative="1" as="geometry">
            <mxPoint x="-127" y="1485" as="sourcePoint" />
            <mxPoint x="225" y="1485" as="targetPoint" />
          </mxGeometry>
        </mxCell>
        <mxCell id="q8E49kU9VPwSmF2rlxvp-29" value="&lt;b&gt;Enter Account Number and Money Amount&lt;/b&gt;" style="text;html=1;align=center;verticalAlign=middle;whiteSpace=wrap;rounded=0;" parent="1" vertex="1">
          <mxGeometry x="-116" y="1452" width="308" height="30" as="geometry" />
        </mxCell>
        <mxCell id="q8E49kU9VPwSmF2rlxvp-30" value="" style="endArrow=classic;html=1;rounded=0;" parent="1" edge="1">
          <mxGeometry width="50" height="50" relative="1" as="geometry">
            <mxPoint x="225" y="1515" as="sourcePoint" />
            <mxPoint x="1985" y="1515" as="targetPoint" />
          </mxGeometry>
        </mxCell>
        <mxCell id="q8E49kU9VPwSmF2rlxvp-31" value="&lt;b&gt;Valid and Update Balance&amp;nbsp;&lt;/b&gt;" style="text;html=1;align=center;verticalAlign=middle;whiteSpace=wrap;rounded=0;" parent="1" vertex="1">
          <mxGeometry x="236" y="1482" width="308" height="30" as="geometry" />
        </mxCell>
        <mxCell id="q8E49kU9VPwSmF2rlxvp-32" value="" style="endArrow=classic;html=1;rounded=0;" parent="1" edge="1">
          <mxGeometry width="50" height="50" relative="1" as="geometry">
            <mxPoint x="225" y="1562" as="sourcePoint" />
            <mxPoint x="577" y="1562" as="targetPoint" />
          </mxGeometry>
        </mxCell>
        <mxCell id="q8E49kU9VPwSmF2rlxvp-33" value="&lt;b&gt;Store Transaction&lt;/b&gt;" style="text;html=1;align=center;verticalAlign=middle;whiteSpace=wrap;rounded=0;" parent="1" vertex="1">
          <mxGeometry x="236" y="1529" width="308" height="30" as="geometry" />
        </mxCell>
        <mxCell id="q8E49kU9VPwSmF2rlxvp-36" value="" style="endArrow=classic;html=1;rounded=0;dashed=1;" parent="1" edge="1">
          <mxGeometry width="50" height="50" relative="1" as="geometry">
            <mxPoint x="225" y="1584" as="sourcePoint" />
            <mxPoint x="-127" y="1584" as="targetPoint" />
          </mxGeometry>
        </mxCell>
        <mxCell id="q8E49kU9VPwSmF2rlxvp-37" value="&lt;b&gt;Deposit Successful&lt;/b&gt;" style="text;html=1;align=center;verticalAlign=middle;whiteSpace=wrap;rounded=0;" parent="1" vertex="1">
          <mxGeometry x="-116" y="1562" width="308" height="30" as="geometry" />
        </mxCell>
        <mxCell id="q8E49kU9VPwSmF2rlxvp-38" value="" style="endArrow=none;html=1;rounded=0;dashed=1;dashPattern=8 8;" parent="1" edge="1">
          <mxGeometry width="50" height="50" relative="1" as="geometry">
            <mxPoint x="-129" y="1606" as="sourcePoint" />
            <mxPoint x="1983" y="1606" as="targetPoint" />
          </mxGeometry>
        </mxCell>
        <mxCell id="q8E49kU9VPwSmF2rlxvp-39" value="&lt;b&gt;Withdraw money&lt;/b&gt;" style="html=1;verticalAlign=bottom;startArrow=circle;startFill=1;endArrow=open;startSize=6;endSize=8;curved=0;rounded=0;" parent="1" edge="1">
          <mxGeometry x="0.0132" y="11" width="80" relative="1" as="geometry">
            <mxPoint x="-281" y="1628" as="sourcePoint" />
            <mxPoint x="-129" y="1628" as="targetPoint" />
            <mxPoint as="offset" />
          </mxGeometry>
        </mxCell>
        <mxCell id="q8E49kU9VPwSmF2rlxvp-40" value="" style="endArrow=classic;html=1;rounded=0;" parent="1" edge="1">
          <mxGeometry width="50" height="50" relative="1" as="geometry">
            <mxPoint x="-127" y="1661" as="sourcePoint" />
            <mxPoint x="225" y="1661" as="targetPoint" />
          </mxGeometry>
        </mxCell>
        <mxCell id="q8E49kU9VPwSmF2rlxvp-41" value="&lt;b&gt;Enter Account Number and Money Amount&lt;/b&gt;" style="text;html=1;align=center;verticalAlign=middle;whiteSpace=wrap;rounded=0;" parent="1" vertex="1">
          <mxGeometry x="-116" y="1628" width="308" height="30" as="geometry" />
        </mxCell>
        <mxCell id="q8E49kU9VPwSmF2rlxvp-42" value="" style="endArrow=classic;html=1;rounded=0;" parent="1" edge="1">
          <mxGeometry width="50" height="50" relative="1" as="geometry">
            <mxPoint x="225" y="1683" as="sourcePoint" />
            <mxPoint x="1985" y="1683" as="targetPoint" />
          </mxGeometry>
        </mxCell>
        <mxCell id="q8E49kU9VPwSmF2rlxvp-43" value="&lt;b&gt;Valid and Update Balance&amp;nbsp;&lt;/b&gt;" style="text;html=1;align=center;verticalAlign=middle;whiteSpace=wrap;rounded=0;" parent="1" vertex="1">
          <mxGeometry x="236" y="1650" width="308" height="30" as="geometry" />
        </mxCell>
        <mxCell id="q8E49kU9VPwSmF2rlxvp-44" value="" style="endArrow=classic;html=1;rounded=0;" parent="1" edge="1">
          <mxGeometry width="50" height="50" relative="1" as="geometry">
            <mxPoint x="225" y="1713" as="sourcePoint" />
            <mxPoint x="577" y="1713" as="targetPoint" />
          </mxGeometry>
        </mxCell>
        <mxCell id="q8E49kU9VPwSmF2rlxvp-45" value="&lt;b&gt;Store Transaction&lt;/b&gt;" style="text;html=1;align=center;verticalAlign=middle;whiteSpace=wrap;rounded=0;" parent="1" vertex="1">
          <mxGeometry x="236" y="1680" width="308" height="30" as="geometry" />
        </mxCell>
        <mxCell id="q8E49kU9VPwSmF2rlxvp-48" value="" style="endArrow=classic;html=1;rounded=0;dashed=1;" parent="1" edge="1">
          <mxGeometry width="50" height="50" relative="1" as="geometry">
            <mxPoint x="225" y="1727" as="sourcePoint" />
            <mxPoint x="-127" y="1727" as="targetPoint" />
          </mxGeometry>
        </mxCell>
        <mxCell id="q8E49kU9VPwSmF2rlxvp-49" value="&lt;b&gt;Withdraw Successful&lt;/b&gt;" style="text;html=1;align=center;verticalAlign=middle;whiteSpace=wrap;rounded=0;" parent="1" vertex="1">
          <mxGeometry x="-116" y="1705" width="308" height="30" as="geometry" />
        </mxCell>
        <mxCell id="q8E49kU9VPwSmF2rlxvp-50" value="" style="endArrow=none;html=1;rounded=0;dashed=1;dashPattern=8 8;" parent="1" edge="1">
          <mxGeometry width="50" height="50" relative="1" as="geometry">
            <mxPoint x="-129" y="1749" as="sourcePoint" />
            <mxPoint x="1983" y="1749" as="targetPoint" />
          </mxGeometry>
        </mxCell>
        <mxCell id="q8E49kU9VPwSmF2rlxvp-51" value="&lt;b&gt;Transfr money&lt;/b&gt;" style="html=1;verticalAlign=bottom;startArrow=circle;startFill=1;endArrow=open;startSize=6;endSize=8;curved=0;rounded=0;" parent="1" edge="1">
          <mxGeometry x="0.0132" y="11" width="80" relative="1" as="geometry">
            <mxPoint x="-281" y="1782" as="sourcePoint" />
            <mxPoint x="-129" y="1782" as="targetPoint" />
            <mxPoint as="offset" />
          </mxGeometry>
        </mxCell>
        <mxCell id="q8E49kU9VPwSmF2rlxvp-52" value="" style="endArrow=classic;html=1;rounded=0;" parent="1" edge="1">
          <mxGeometry width="50" height="50" relative="1" as="geometry">
            <mxPoint x="-127" y="1804" as="sourcePoint" />
            <mxPoint x="225" y="1804" as="targetPoint" />
          </mxGeometry>
        </mxCell>
        <mxCell id="q8E49kU9VPwSmF2rlxvp-53" value="&lt;b&gt;Enter Account Number and Money Amount and Account Number (To)&lt;/b&gt;" style="text;html=1;align=center;verticalAlign=middle;whiteSpace=wrap;rounded=0;" parent="1" vertex="1">
          <mxGeometry x="-116" y="1771" width="308" height="30" as="geometry" />
        </mxCell>
        <mxCell id="q8E49kU9VPwSmF2rlxvp-54" value="" style="endArrow=classic;html=1;rounded=0;" parent="1" edge="1">
          <mxGeometry width="50" height="50" relative="1" as="geometry">
            <mxPoint x="225" y="1826" as="sourcePoint" />
            <mxPoint x="1985" y="1826" as="targetPoint" />
          </mxGeometry>
        </mxCell>
        <mxCell id="q8E49kU9VPwSmF2rlxvp-55" value="&lt;b&gt;Valid and Update Balance&amp;nbsp;&lt;/b&gt;" style="text;html=1;align=center;verticalAlign=middle;whiteSpace=wrap;rounded=0;" parent="1" vertex="1">
          <mxGeometry x="236" y="1793" width="308" height="30" as="geometry" />
        </mxCell>
        <mxCell id="q8E49kU9VPwSmF2rlxvp-56" value="" style="endArrow=classic;html=1;rounded=0;" parent="1" edge="1">
          <mxGeometry width="50" height="50" relative="1" as="geometry">
            <mxPoint x="223" y="1859" as="sourcePoint" />
            <mxPoint x="575" y="1859" as="targetPoint" />
          </mxGeometry>
        </mxCell>
        <mxCell id="q8E49kU9VPwSmF2rlxvp-57" value="&lt;b&gt;Store Transaction&lt;/b&gt;" style="text;html=1;align=center;verticalAlign=middle;whiteSpace=wrap;rounded=0;" parent="1" vertex="1">
          <mxGeometry x="234" y="1826" width="308" height="30" as="geometry" />
        </mxCell>
        <mxCell id="q8E49kU9VPwSmF2rlxvp-58" value="" style="endArrow=classic;html=1;rounded=0;dashed=1;" parent="1" edge="1">
          <mxGeometry width="50" height="50" relative="1" as="geometry">
            <mxPoint x="225" y="1881" as="sourcePoint" />
            <mxPoint x="-127" y="1881" as="targetPoint" />
          </mxGeometry>
        </mxCell>
        <mxCell id="q8E49kU9VPwSmF2rlxvp-59" value="&lt;b&gt;Transfer Successful&lt;/b&gt;" style="text;html=1;align=center;verticalAlign=middle;whiteSpace=wrap;rounded=0;" parent="1" vertex="1">
          <mxGeometry x="-116" y="1859" width="308" height="30" as="geometry" />
        </mxCell>
        <mxCell id="q8E49kU9VPwSmF2rlxvp-60" value="" style="endArrow=none;html=1;rounded=0;dashed=1;dashPattern=8 8;" parent="1" edge="1">
          <mxGeometry width="50" height="50" relative="1" as="geometry">
            <mxPoint x="-129" y="1914" as="sourcePoint" />
            <mxPoint x="1983" y="1914" as="targetPoint" />
          </mxGeometry>
        </mxCell>
        <mxCell id="q8E49kU9VPwSmF2rlxvp-61" value="&lt;b&gt;Submit Review&lt;/b&gt;" style="html=1;verticalAlign=bottom;startArrow=circle;startFill=1;endArrow=open;startSize=6;endSize=8;curved=0;rounded=0;" parent="1" edge="1">
          <mxGeometry x="0.0132" y="11" width="80" relative="1" as="geometry">
            <mxPoint x="-281" y="1947" as="sourcePoint" />
            <mxPoint x="-129" y="1947" as="targetPoint" />
            <mxPoint as="offset" />
          </mxGeometry>
        </mxCell>
        <mxCell id="q8E49kU9VPwSmF2rlxvp-62" value="" style="endArrow=classic;html=1;rounded=0;" parent="1" edge="1">
          <mxGeometry width="50" height="50" relative="1" as="geometry">
            <mxPoint x="-127" y="1969" as="sourcePoint" />
            <mxPoint x="225" y="1969" as="targetPoint" />
          </mxGeometry>
        </mxCell>
        <mxCell id="q8E49kU9VPwSmF2rlxvp-63" value="&lt;b&gt;Enter Review&lt;/b&gt;" style="text;html=1;align=center;verticalAlign=middle;whiteSpace=wrap;rounded=0;" parent="1" vertex="1">
          <mxGeometry x="-116" y="1936" width="308" height="30" as="geometry" />
        </mxCell>
        <mxCell id="q8E49kU9VPwSmF2rlxvp-64" value="" style="endArrow=classic;html=1;rounded=0;" parent="1" edge="1">
          <mxGeometry width="50" height="50" relative="1" as="geometry">
            <mxPoint x="225" y="1999" as="sourcePoint" />
            <mxPoint x="1633" y="2002" as="targetPoint" />
          </mxGeometry>
        </mxCell>
        <mxCell id="q8E49kU9VPwSmF2rlxvp-65" value="&lt;b&gt;Save and Push Review to Stack&lt;/b&gt;" style="text;html=1;align=center;verticalAlign=middle;whiteSpace=wrap;rounded=0;" parent="1" vertex="1">
          <mxGeometry x="236" y="1966" width="308" height="30" as="geometry" />
        </mxCell>
        <mxCell id="q8E49kU9VPwSmF2rlxvp-66" value="" style="endArrow=classic;html=1;rounded=0;" parent="1" edge="1">
          <mxGeometry width="50" height="50" relative="1" as="geometry">
            <mxPoint x="225" y="2046" as="sourcePoint" />
            <mxPoint x="1985" y="2046" as="targetPoint" />
          </mxGeometry>
        </mxCell>
        <mxCell id="q8E49kU9VPwSmF2rlxvp-67" value="&lt;b&gt;Store Review and National Id&amp;nbsp;&amp;nbsp;&lt;/b&gt;" style="text;html=1;align=center;verticalAlign=middle;whiteSpace=wrap;rounded=0;" parent="1" vertex="1">
          <mxGeometry x="236" y="2013" width="308" height="30" as="geometry" />
        </mxCell>
        <mxCell id="q8E49kU9VPwSmF2rlxvp-70" value="" style="endArrow=classic;html=1;rounded=0;dashed=1;" parent="1" edge="1">
          <mxGeometry width="50" height="50" relative="1" as="geometry">
            <mxPoint x="225" y="2068" as="sourcePoint" />
            <mxPoint x="-127" y="2068" as="targetPoint" />
          </mxGeometry>
        </mxCell>
        <mxCell id="q8E49kU9VPwSmF2rlxvp-71" value="&lt;b&gt;Review Submit&lt;/b&gt;" style="text;html=1;align=center;verticalAlign=middle;whiteSpace=wrap;rounded=0;" parent="1" vertex="1">
          <mxGeometry x="-116" y="2046" width="308" height="30" as="geometry" />
        </mxCell>
        <mxCell id="q8E49kU9VPwSmF2rlxvp-72" value="&lt;b&gt;Undo Last complaint&lt;/b&gt;" style="html=1;verticalAlign=bottom;startArrow=circle;startFill=1;endArrow=open;startSize=6;endSize=8;curved=0;rounded=0;" parent="1" edge="1">
          <mxGeometry x="0.0132" y="11" width="80" relative="1" as="geometry">
            <mxPoint x="-281" y="2112" as="sourcePoint" />
            <mxPoint x="-129" y="2112" as="targetPoint" />
            <mxPoint as="offset" />
          </mxGeometry>
        </mxCell>
        <mxCell id="q8E49kU9VPwSmF2rlxvp-73" value="" style="endArrow=classic;html=1;rounded=0;" parent="1" edge="1">
          <mxGeometry width="50" height="50" relative="1" as="geometry">
            <mxPoint x="-127" y="2145" as="sourcePoint" />
            <mxPoint x="225" y="2145" as="targetPoint" />
          </mxGeometry>
        </mxCell>
        <mxCell id="q8E49kU9VPwSmF2rlxvp-74" value="&lt;b&gt;Request Undo&lt;/b&gt;" style="text;html=1;align=center;verticalAlign=middle;whiteSpace=wrap;rounded=0;" parent="1" vertex="1">
          <mxGeometry x="-116" y="2112" width="308" height="30" as="geometry" />
        </mxCell>
        <mxCell id="q8E49kU9VPwSmF2rlxvp-75" value="" style="endArrow=classic;html=1;rounded=0;" parent="1" edge="1">
          <mxGeometry width="50" height="50" relative="1" as="geometry">
            <mxPoint x="223" y="2178" as="sourcePoint" />
            <mxPoint x="1631" y="2181" as="targetPoint" />
          </mxGeometry>
        </mxCell>
        <mxCell id="q8E49kU9VPwSmF2rlxvp-76" value="&lt;b&gt;Pop Last Review&lt;/b&gt;" style="text;html=1;align=center;verticalAlign=middle;whiteSpace=wrap;rounded=0;" parent="1" vertex="1">
          <mxGeometry x="234" y="2145" width="308" height="30" as="geometry" />
        </mxCell>
        <mxCell id="q8E49kU9VPwSmF2rlxvp-77" value="" style="endArrow=classic;html=1;rounded=0;" parent="1" edge="1">
          <mxGeometry width="50" height="50" relative="1" as="geometry">
            <mxPoint x="225" y="2211" as="sourcePoint" />
            <mxPoint x="1985" y="2211" as="targetPoint" />
          </mxGeometry>
        </mxCell>
        <mxCell id="q8E49kU9VPwSmF2rlxvp-78" value="&lt;b&gt;Remove Review and National Id&amp;nbsp;&amp;nbsp;&lt;/b&gt;" style="text;html=1;align=center;verticalAlign=middle;whiteSpace=wrap;rounded=0;" parent="1" vertex="1">
          <mxGeometry x="236" y="2178" width="308" height="30" as="geometry" />
        </mxCell>
        <mxCell id="q8E49kU9VPwSmF2rlxvp-79" value="" style="endArrow=classic;html=1;rounded=0;dashed=1;" parent="1" edge="1">
          <mxGeometry width="50" height="50" relative="1" as="geometry">
            <mxPoint x="225" y="2230" as="sourcePoint" />
            <mxPoint x="-127" y="2230" as="targetPoint" />
          </mxGeometry>
        </mxCell>
        <mxCell id="q8E49kU9VPwSmF2rlxvp-80" value="&lt;b&gt;Remove Complaint&lt;/b&gt;" style="text;html=1;align=center;verticalAlign=middle;whiteSpace=wrap;rounded=0;" parent="1" vertex="1">
          <mxGeometry x="-116" y="2208" width="308" height="30" as="geometry" />
        </mxCell>
        <mxCell id="q8E49kU9VPwSmF2rlxvp-81" value="" style="endArrow=none;html=1;rounded=0;dashed=1;dashPattern=8 8;" parent="1" edge="1">
          <mxGeometry width="50" height="50" relative="1" as="geometry">
            <mxPoint x="-129" y="2090" as="sourcePoint" />
            <mxPoint x="1983" y="2090" as="targetPoint" />
          </mxGeometry>
        </mxCell>
        <mxCell id="q8E49kU9VPwSmF2rlxvp-82" value="" style="endArrow=none;html=1;rounded=0;dashed=1;dashPattern=8 8;" parent="1" edge="1">
          <mxGeometry width="50" height="50" relative="1" as="geometry">
            <mxPoint x="-129" y="2255" as="sourcePoint" />
            <mxPoint x="1983" y="2255" as="targetPoint" />
          </mxGeometry>
        </mxCell>
        <mxCell id="q8E49kU9VPwSmF2rlxvp-83" value="&lt;b&gt;Update Account Info&lt;/b&gt;" style="html=1;verticalAlign=bottom;startArrow=circle;startFill=1;endArrow=open;startSize=6;endSize=8;curved=0;rounded=0;" parent="1" edge="1">
          <mxGeometry x="0.0132" y="11" width="80" relative="1" as="geometry">
            <mxPoint x="-281" y="2288" as="sourcePoint" />
            <mxPoint x="-129" y="2288" as="targetPoint" />
            <mxPoint as="offset" />
          </mxGeometry>
        </mxCell>
        <mxCell id="q8E49kU9VPwSmF2rlxvp-84" value="" style="endArrow=classic;html=1;rounded=0;" parent="1" edge="1">
          <mxGeometry width="50" height="50" relative="1" as="geometry">
            <mxPoint x="-127" y="2310" as="sourcePoint" />
            <mxPoint x="225" y="2310" as="targetPoint" />
          </mxGeometry>
        </mxCell>
        <mxCell id="q8E49kU9VPwSmF2rlxvp-85" value="&lt;b&gt;Enter New Account Info&lt;/b&gt;" style="text;html=1;align=center;verticalAlign=middle;whiteSpace=wrap;rounded=0;" parent="1" vertex="1">
          <mxGeometry x="-116" y="2277" width="308" height="30" as="geometry" />
        </mxCell>
        <mxCell id="q8E49kU9VPwSmF2rlxvp-86" value="" style="endArrow=classic;html=1;rounded=0;" parent="1" edge="1">
          <mxGeometry width="50" height="50" relative="1" as="geometry">
            <mxPoint x="225" y="2331" as="sourcePoint" />
            <mxPoint x="1985" y="2331" as="targetPoint" />
          </mxGeometry>
        </mxCell>
        <mxCell id="q8E49kU9VPwSmF2rlxvp-87" value="&lt;b&gt;Update Account Details&lt;/b&gt;" style="text;html=1;align=center;verticalAlign=middle;whiteSpace=wrap;rounded=0;" parent="1" vertex="1">
          <mxGeometry x="225" y="2299" width="308" height="30" as="geometry" />
        </mxCell>
        <mxCell id="q8E49kU9VPwSmF2rlxvp-88" value="" style="endArrow=classic;html=1;rounded=0;dashed=1;" parent="1" edge="1">
          <mxGeometry width="50" height="50" relative="1" as="geometry">
            <mxPoint x="225" y="2351" as="sourcePoint" />
            <mxPoint x="-127" y="2351" as="targetPoint" />
          </mxGeometry>
        </mxCell>
        <mxCell id="q8E49kU9VPwSmF2rlxvp-89" value="&lt;b&gt;Info Updated&lt;/b&gt;" style="text;html=1;align=center;verticalAlign=middle;whiteSpace=wrap;rounded=0;" parent="1" vertex="1">
          <mxGeometry x="-116" y="2329" width="308" height="30" as="geometry" />
        </mxCell>
        <mxCell id="q8E49kU9VPwSmF2rlxvp-90" value="" style="endArrow=none;html=1;rounded=0;dashed=1;dashPattern=8 8;" parent="1" edge="1">
          <mxGeometry width="50" height="50" relative="1" as="geometry">
            <mxPoint x="-129" y="2376" as="sourcePoint" />
            <mxPoint x="1983" y="2376" as="targetPoint" />
          </mxGeometry>
        </mxCell>
        <mxCell id="q8E49kU9VPwSmF2rlxvp-91" value="&lt;b&gt;Show All Account Transactions&lt;/b&gt;" style="html=1;verticalAlign=bottom;startArrow=circle;startFill=1;endArrow=open;startSize=6;endSize=8;curved=0;rounded=0;" parent="1" edge="1">
          <mxGeometry x="-0.1316" y="11" width="80" relative="1" as="geometry">
            <mxPoint x="-281" y="2409" as="sourcePoint" />
            <mxPoint x="-129" y="2409" as="targetPoint" />
            <mxPoint as="offset" />
          </mxGeometry>
        </mxCell>
        <mxCell id="q8E49kU9VPwSmF2rlxvp-92" value="" style="endArrow=classic;html=1;rounded=0;" parent="1" edge="1">
          <mxGeometry width="50" height="50" relative="1" as="geometry">
            <mxPoint x="-127" y="2431" as="sourcePoint" />
            <mxPoint x="225" y="2431" as="targetPoint" />
          </mxGeometry>
        </mxCell>
        <mxCell id="q8E49kU9VPwSmF2rlxvp-93" value="&lt;b&gt;Request Transaction&amp;nbsp;&lt;/b&gt;" style="text;html=1;align=center;verticalAlign=middle;whiteSpace=wrap;rounded=0;" parent="1" vertex="1">
          <mxGeometry x="-116" y="2398" width="308" height="30" as="geometry" />
        </mxCell>
        <mxCell id="q8E49kU9VPwSmF2rlxvp-94" value="" style="endArrow=classic;html=1;rounded=0;" parent="1" edge="1">
          <mxGeometry width="50" height="50" relative="1" as="geometry">
            <mxPoint x="225" y="2452" as="sourcePoint" />
            <mxPoint x="577" y="2452" as="targetPoint" />
          </mxGeometry>
        </mxCell>
        <mxCell id="q8E49kU9VPwSmF2rlxvp-95" value="&lt;b&gt;Read Transaction&lt;/b&gt;" style="text;html=1;align=center;verticalAlign=middle;whiteSpace=wrap;rounded=0;" parent="1" vertex="1">
          <mxGeometry x="236" y="2419" width="308" height="30" as="geometry" />
        </mxCell>
        <mxCell id="q8E49kU9VPwSmF2rlxvp-98" value="" style="endArrow=classic;html=1;rounded=0;dashed=1;" parent="1" edge="1">
          <mxGeometry width="50" height="50" relative="1" as="geometry">
            <mxPoint x="225" y="2471" as="sourcePoint" />
            <mxPoint x="-127" y="2471" as="targetPoint" />
          </mxGeometry>
        </mxCell>
        <mxCell id="q8E49kU9VPwSmF2rlxvp-99" value="&lt;b&gt;Show Transaction&lt;/b&gt;" style="text;html=1;align=center;verticalAlign=middle;whiteSpace=wrap;rounded=0;" parent="1" vertex="1">
          <mxGeometry x="-116" y="2449" width="308" height="30" as="geometry" />
        </mxCell>
        <mxCell id="q8E49kU9VPwSmF2rlxvp-100" value="" style="endArrow=none;html=1;rounded=0;dashed=1;dashPattern=8 8;" parent="1" edge="1">
          <mxGeometry width="50" height="50" relative="1" as="geometry">
            <mxPoint x="-129" y="2495" as="sourcePoint" />
            <mxPoint x="1983" y="2495" as="targetPoint" />
          </mxGeometry>
        </mxCell>
        <mxCell id="q8E49kU9VPwSmF2rlxvp-101" value="&lt;b&gt;Monthly Statement&lt;/b&gt;" style="html=1;verticalAlign=bottom;startArrow=circle;startFill=1;endArrow=open;startSize=6;endSize=8;curved=0;rounded=0;" parent="1" edge="1">
          <mxGeometry x="-0.1316" y="11" width="80" relative="1" as="geometry">
            <mxPoint x="-281" y="2541" as="sourcePoint" />
            <mxPoint x="-129" y="2541" as="targetPoint" />
            <mxPoint as="offset" />
          </mxGeometry>
        </mxCell>
        <mxCell id="q8E49kU9VPwSmF2rlxvp-102" value="" style="endArrow=classic;html=1;rounded=0;" parent="1" edge="1">
          <mxGeometry width="50" height="50" relative="1" as="geometry">
            <mxPoint x="-127" y="2563" as="sourcePoint" />
            <mxPoint x="225" y="2563" as="targetPoint" />
          </mxGeometry>
        </mxCell>
        <mxCell id="q8E49kU9VPwSmF2rlxvp-103" value="&lt;b&gt;Request Statement&lt;/b&gt;" style="text;html=1;align=center;verticalAlign=middle;whiteSpace=wrap;rounded=0;" parent="1" vertex="1">
          <mxGeometry x="-116" y="2530" width="308" height="30" as="geometry" />
        </mxCell>
        <mxCell id="q8E49kU9VPwSmF2rlxvp-104" value="" style="endArrow=classic;html=1;rounded=0;" parent="1" edge="1">
          <mxGeometry width="50" height="50" relative="1" as="geometry">
            <mxPoint x="225" y="2585" as="sourcePoint" />
            <mxPoint x="577" y="2585" as="targetPoint" />
          </mxGeometry>
        </mxCell>
        <mxCell id="q8E49kU9VPwSmF2rlxvp-105" value="&lt;b&gt;Generate Statement File&lt;/b&gt;" style="text;html=1;align=center;verticalAlign=middle;whiteSpace=wrap;rounded=0;" parent="1" vertex="1">
          <mxGeometry x="236" y="2552" width="308" height="30" as="geometry" />
        </mxCell>
        <mxCell id="q8E49kU9VPwSmF2rlxvp-106" value="" style="endArrow=classic;html=1;rounded=0;dashed=1;" parent="1" edge="1">
          <mxGeometry width="50" height="50" relative="1" as="geometry">
            <mxPoint x="225" y="2604" as="sourcePoint" />
            <mxPoint x="-127" y="2604" as="targetPoint" />
          </mxGeometry>
        </mxCell>
        <mxCell id="q8E49kU9VPwSmF2rlxvp-107" value="&lt;b&gt;Statement Generated&lt;/b&gt;" style="text;html=1;align=center;verticalAlign=middle;whiteSpace=wrap;rounded=0;" parent="1" vertex="1">
          <mxGeometry x="-116" y="2582" width="308" height="30" as="geometry" />
        </mxCell>
        <mxCell id="q8E49kU9VPwSmF2rlxvp-108" value="" style="endArrow=none;html=1;rounded=0;dashed=1;dashPattern=8 8;" parent="1" edge="1">
          <mxGeometry width="50" height="50" relative="1" as="geometry">
            <mxPoint x="-129" y="2640" as="sourcePoint" />
            <mxPoint x="1983" y="2640" as="targetPoint" />
          </mxGeometry>
        </mxCell>
        <mxCell id="q8E49kU9VPwSmF2rlxvp-110" value="" style="endArrow=classic;html=1;rounded=0;" parent="1" edge="1">
          <mxGeometry width="50" height="50" relative="1" as="geometry">
            <mxPoint x="-127" y="2705" as="sourcePoint" />
            <mxPoint x="225" y="2705" as="targetPoint" />
          </mxGeometry>
        </mxCell>
        <mxCell id="q8E49kU9VPwSmF2rlxvp-111" value="&lt;b&gt;Select Services (Loan, Consultation)&lt;/b&gt;" style="text;html=1;align=center;verticalAlign=middle;whiteSpace=wrap;rounded=0;" parent="1" vertex="1">
          <mxGeometry x="-116" y="2672" width="308" height="30" as="geometry" />
        </mxCell>
        <mxCell id="q8E49kU9VPwSmF2rlxvp-112" value="&lt;b&gt;Request Loan&lt;/b&gt;" style="html=1;verticalAlign=bottom;startArrow=circle;startFill=1;endArrow=open;startSize=6;endSize=8;curved=0;rounded=0;" parent="1" edge="1">
          <mxGeometry x="-0.1316" y="11" width="80" relative="1" as="geometry">
            <mxPoint x="-248" y="2750" as="sourcePoint" />
            <mxPoint x="-129" y="2749" as="targetPoint" />
            <mxPoint as="offset" />
          </mxGeometry>
        </mxCell>
        <mxCell id="q8E49kU9VPwSmF2rlxvp-113" value="" style="endArrow=classic;html=1;rounded=0;" parent="1" edge="1">
          <mxGeometry width="50" height="50" relative="1" as="geometry">
            <mxPoint x="-127" y="2772" as="sourcePoint" />
            <mxPoint x="225" y="2772" as="targetPoint" />
          </mxGeometry>
        </mxCell>
        <mxCell id="q8E49kU9VPwSmF2rlxvp-114" value="&lt;b&gt;Enter Loan Amount&lt;/b&gt;" style="text;html=1;align=center;verticalAlign=middle;whiteSpace=wrap;rounded=0;" parent="1" vertex="1">
          <mxGeometry x="-116" y="2739" width="308" height="30" as="geometry" />
        </mxCell>
        <mxCell id="q8E49kU9VPwSmF2rlxvp-115" value="" style="endArrow=classic;html=1;rounded=0;" parent="1" edge="1">
          <mxGeometry width="50" height="50" relative="1" as="geometry">
            <mxPoint x="225" y="2794" as="sourcePoint" />
            <mxPoint x="1281" y="2794" as="targetPoint" />
          </mxGeometry>
        </mxCell>
        <mxCell id="q8E49kU9VPwSmF2rlxvp-116" value="&lt;b&gt;Save Loan Request to Queue&lt;/b&gt;" style="text;html=1;align=center;verticalAlign=middle;whiteSpace=wrap;rounded=0;" parent="1" vertex="1">
          <mxGeometry x="258" y="2761" width="308" height="30" as="geometry" />
        </mxCell>
        <mxCell id="q8E49kU9VPwSmF2rlxvp-117" value="" style="endArrow=classic;html=1;rounded=0;dashed=1;" parent="1" edge="1">
          <mxGeometry width="50" height="50" relative="1" as="geometry">
            <mxPoint x="225" y="2816" as="sourcePoint" />
            <mxPoint x="-127" y="2816" as="targetPoint" />
          </mxGeometry>
        </mxCell>
        <mxCell id="q8E49kU9VPwSmF2rlxvp-118" value="&lt;b&gt;Loan Request Submit&lt;/b&gt;" style="text;html=1;align=center;verticalAlign=middle;whiteSpace=wrap;rounded=0;" parent="1" vertex="1">
          <mxGeometry x="-116" y="2794" width="308" height="30" as="geometry" />
        </mxCell>
        <mxCell id="q8E49kU9VPwSmF2rlxvp-120" value="&lt;b&gt;Request&amp;nbsp;&lt;/b&gt;&lt;b style=&quot;font-size: 12px; text-wrap-mode: wrap; background-color: rgb(236, 236, 236);&quot;&gt;Consultation&lt;/b&gt;" style="html=1;verticalAlign=bottom;startArrow=circle;startFill=1;endArrow=open;startSize=6;endSize=8;curved=0;rounded=0;" parent="1" edge="1">
          <mxGeometry x="-0.1316" y="11" width="80" relative="1" as="geometry">
            <mxPoint x="-248" y="2860" as="sourcePoint" />
            <mxPoint x="-129" y="2860" as="targetPoint" />
            <mxPoint as="offset" />
          </mxGeometry>
        </mxCell>
        <mxCell id="q8E49kU9VPwSmF2rlxvp-121" value="" style="endArrow=classic;html=1;rounded=0;" parent="1" edge="1">
          <mxGeometry width="50" height="50" relative="1" as="geometry">
            <mxPoint x="-127" y="2882" as="sourcePoint" />
            <mxPoint x="225" y="2882" as="targetPoint" />
          </mxGeometry>
        </mxCell>
        <mxCell id="q8E49kU9VPwSmF2rlxvp-122" value="&lt;b&gt;Enter Consultation Date&lt;/b&gt;" style="text;html=1;align=center;verticalAlign=middle;whiteSpace=wrap;rounded=0;" parent="1" vertex="1">
          <mxGeometry x="-116" y="2849" width="308" height="30" as="geometry" />
        </mxCell>
        <mxCell id="q8E49kU9VPwSmF2rlxvp-123" value="" style="endArrow=classic;html=1;rounded=0;" parent="1" edge="1">
          <mxGeometry width="50" height="50" relative="1" as="geometry">
            <mxPoint x="225" y="2904" as="sourcePoint" />
            <mxPoint x="1281" y="2904" as="targetPoint" />
          </mxGeometry>
        </mxCell>
        <mxCell id="q8E49kU9VPwSmF2rlxvp-124" value="&lt;b&gt;Save Consultation Request to Queue&lt;/b&gt;" style="text;html=1;align=center;verticalAlign=middle;whiteSpace=wrap;rounded=0;" parent="1" vertex="1">
          <mxGeometry x="247" y="2879" width="308" height="30" as="geometry" />
        </mxCell>
        <mxCell id="q8E49kU9VPwSmF2rlxvp-125" value="" style="endArrow=classic;html=1;rounded=0;dashed=1;" parent="1" edge="1">
          <mxGeometry width="50" height="50" relative="1" as="geometry">
            <mxPoint x="225" y="2925" as="sourcePoint" />
            <mxPoint x="-127" y="2925" as="targetPoint" />
          </mxGeometry>
        </mxCell>
        <mxCell id="q8E49kU9VPwSmF2rlxvp-126" value="&lt;b&gt;Consultation Request Submit&lt;/b&gt;" style="text;html=1;align=center;verticalAlign=middle;whiteSpace=wrap;rounded=0;" parent="1" vertex="1">
          <mxGeometry x="-116" y="2903" width="308" height="30" as="geometry" />
        </mxCell>
        <mxCell id="q8E49kU9VPwSmF2rlxvp-127" value="" style="endArrow=none;html=1;rounded=0;dashed=1;dashPattern=8 8;" parent="1" edge="1">
          <mxGeometry width="50" height="50" relative="1" as="geometry">
            <mxPoint x="-129" y="2948" as="sourcePoint" />
            <mxPoint x="1983" y="2948" as="targetPoint" />
          </mxGeometry>
        </mxCell>
        <mxCell id="q8E49kU9VPwSmF2rlxvp-128" value="&lt;b&gt;End User Menu&lt;/b&gt;" style="html=1;verticalAlign=bottom;startArrow=circle;startFill=1;endArrow=open;startSize=6;endSize=8;curved=0;rounded=0;" parent="1" edge="1">
          <mxGeometry x="0.0132" y="11" width="80" relative="1" as="geometry">
            <mxPoint x="-358" y="1276" as="sourcePoint" />
            <mxPoint x="-129" y="1275.17" as="targetPoint" />
            <mxPoint as="offset" />
          </mxGeometry>
        </mxCell>
        <mxCell id="q8E49kU9VPwSmF2rlxvp-129" value="&lt;b&gt;Exit End User Menu&lt;/b&gt;" style="html=1;verticalAlign=bottom;startArrow=circle;startFill=1;endArrow=open;startSize=6;endSize=8;curved=0;rounded=0;" parent="1" edge="1">
          <mxGeometry x="-0.1316" y="11" width="80" relative="1" as="geometry">
            <mxPoint x="-358" y="3009" as="sourcePoint" />
            <mxPoint x="-129" y="3009" as="targetPoint" />
            <mxPoint as="offset" />
          </mxGeometry>
        </mxCell>
        <mxCell id="q8E49kU9VPwSmF2rlxvp-130" value="" style="endArrow=classic;html=1;rounded=0;" parent="1" edge="1">
          <mxGeometry width="50" height="50" relative="1" as="geometry">
            <mxPoint x="-127" y="3024" as="sourcePoint" />
            <mxPoint x="225" y="3024" as="targetPoint" />
          </mxGeometry>
        </mxCell>
        <mxCell id="q8E49kU9VPwSmF2rlxvp-131" value="&lt;b&gt;Exit Menu&lt;/b&gt;" style="text;html=1;align=center;verticalAlign=middle;whiteSpace=wrap;rounded=0;" parent="1" vertex="1">
          <mxGeometry x="-116" y="2997" width="308" height="30" as="geometry" />
        </mxCell>
        <mxCell id="q8E49kU9VPwSmF2rlxvp-140" value="&lt;b&gt;Booking Bank Services&lt;/b&gt;" style="html=1;verticalAlign=bottom;startArrow=circle;startFill=1;endArrow=open;startSize=6;endSize=8;curved=0;rounded=0;" parent="1" edge="1">
          <mxGeometry x="-0.1316" y="11" width="80" relative="1" as="geometry">
            <mxPoint x="-281" y="2672" as="sourcePoint" />
            <mxPoint x="-129" y="2672" as="targetPoint" />
            <mxPoint as="offset" />
          </mxGeometry>
        </mxCell>
        <mxCell id="lUnrgZi9oCxwlGKokyiH-1" value="" style="endArrow=classic;html=1;rounded=0;" parent="1" edge="1">
          <mxGeometry width="50" height="50" relative="1" as="geometry">
            <mxPoint x="222" y="3124" as="sourcePoint" />
            <mxPoint x="937" y="3124" as="targetPoint" />
          </mxGeometry>
        </mxCell>
        <mxCell id="lUnrgZi9oCxwlGKokyiH-2" value="&lt;b&gt;Show Admin Menu&lt;/b&gt;" style="text;html=1;align=center;verticalAlign=middle;whiteSpace=wrap;rounded=0;" parent="1" vertex="1">
          <mxGeometry x="234" y="3102" width="308" height="30" as="geometry" />
        </mxCell>
        <mxCell id="lUnrgZi9oCxwlGKokyiH-3" value="&lt;font style=&quot;font-size: 12px;&quot;&gt;&lt;b&gt;Admin Menu&lt;/b&gt;&lt;/font&gt;" style="html=1;verticalAlign=bottom;startArrow=circle;startFill=1;endArrow=open;startSize=6;endSize=8;curved=0;rounded=0;" parent="1" edge="1">
          <mxGeometry width="80" relative="1" as="geometry">
            <mxPoint x="1212" y="3167" as="sourcePoint" />
            <mxPoint x="937" y="3167" as="targetPoint" />
          </mxGeometry>
        </mxCell>
        <mxCell id="lUnrgZi9oCxwlGKokyiH-4" value="" style="endArrow=classic;html=1;rounded=0;" parent="1" edge="1">
          <mxGeometry width="50" height="50" relative="1" as="geometry">
            <mxPoint x="933" y="3212" as="sourcePoint" />
            <mxPoint x="225" y="3212" as="targetPoint" />
          </mxGeometry>
        </mxCell>
        <mxCell id="lUnrgZi9oCxwlGKokyiH-5" value="&lt;b&gt;Select Admin Operation&lt;/b&gt;" style="text;html=1;align=center;verticalAlign=middle;whiteSpace=wrap;rounded=0;" parent="1" vertex="1">
          <mxGeometry x="599" y="3190" width="308" height="30" as="geometry" />
        </mxCell>
        <mxCell id="lUnrgZi9oCxwlGKokyiH-6" value="&lt;font style=&quot;font-size: 12px;&quot;&gt;&lt;b&gt;View Request Open Account&lt;/b&gt;&lt;/font&gt;" style="html=1;verticalAlign=bottom;startArrow=circle;startFill=1;endArrow=open;startSize=6;endSize=8;curved=0;rounded=0;" parent="1" edge="1">
          <mxGeometry width="80" relative="1" as="geometry">
            <mxPoint x="1171" y="3245" as="sourcePoint" />
            <mxPoint x="939" y="3245" as="targetPoint" />
          </mxGeometry>
        </mxCell>
        <mxCell id="lUnrgZi9oCxwlGKokyiH-7" value="" style="endArrow=classic;html=1;rounded=0;" parent="1" edge="1">
          <mxGeometry width="50" height="50" relative="1" as="geometry">
            <mxPoint x="225" y="3278" as="sourcePoint" />
            <mxPoint x="1281" y="3278" as="targetPoint" />
          </mxGeometry>
        </mxCell>
        <mxCell id="lUnrgZi9oCxwlGKokyiH-8" value="&lt;b&gt;Show Account Request&lt;/b&gt;" style="text;html=1;align=center;verticalAlign=middle;whiteSpace=wrap;rounded=0;" parent="1" vertex="1">
          <mxGeometry x="237" y="3256" width="308" height="30" as="geometry" />
        </mxCell>
        <mxCell id="lUnrgZi9oCxwlGKokyiH-9" value="" style="endArrow=classic;html=1;rounded=0;dashed=1;" parent="1" edge="1">
          <mxGeometry width="50" height="50" relative="1" as="geometry">
            <mxPoint x="222" y="3300" as="sourcePoint" />
            <mxPoint x="937" y="3300" as="targetPoint" />
          </mxGeometry>
        </mxCell>
        <mxCell id="lUnrgZi9oCxwlGKokyiH-10" value="&lt;b&gt;Display Request&lt;/b&gt;" style="text;html=1;align=center;verticalAlign=middle;whiteSpace=wrap;rounded=0;" parent="1" vertex="1">
          <mxGeometry x="237" y="3278" width="308" height="30" as="geometry" />
        </mxCell>
        <mxCell id="lUnrgZi9oCxwlGKokyiH-11" value="" style="endArrow=none;html=1;rounded=0;dashed=1;dashPattern=8 8;" parent="1" edge="1">
          <mxGeometry width="50" height="50" relative="1" as="geometry">
            <mxPoint x="224" y="3344" as="sourcePoint" />
            <mxPoint x="1985" y="3344" as="targetPoint" />
          </mxGeometry>
        </mxCell>
        <mxCell id="lUnrgZi9oCxwlGKokyiH-12" value="&lt;font style=&quot;font-size: 12px;&quot;&gt;&lt;b&gt;Approve Account Opening&lt;/b&gt;&lt;/font&gt;" style="html=1;verticalAlign=bottom;startArrow=circle;startFill=1;endArrow=open;startSize=6;endSize=8;curved=0;rounded=0;" parent="1" edge="1">
          <mxGeometry width="80" relative="1" as="geometry">
            <mxPoint x="1172" y="3388" as="sourcePoint" />
            <mxPoint x="940" y="3388" as="targetPoint" />
          </mxGeometry>
        </mxCell>
        <mxCell id="lUnrgZi9oCxwlGKokyiH-13" value="" style="endArrow=classic;html=1;rounded=0;" parent="1" edge="1">
          <mxGeometry width="50" height="50" relative="1" as="geometry">
            <mxPoint x="933" y="3410" as="sourcePoint" />
            <mxPoint x="225" y="3410" as="targetPoint" />
          </mxGeometry>
        </mxCell>
        <mxCell id="lUnrgZi9oCxwlGKokyiH-14" value="&lt;b&gt;Approve Request&lt;/b&gt;" style="text;html=1;align=center;verticalAlign=middle;whiteSpace=wrap;rounded=0;" parent="1" vertex="1">
          <mxGeometry x="599" y="3388" width="308" height="30" as="geometry" />
        </mxCell>
        <mxCell id="lUnrgZi9oCxwlGKokyiH-15" value="" style="endArrow=classic;html=1;rounded=0;" parent="1" edge="1">
          <mxGeometry width="50" height="50" relative="1" as="geometry">
            <mxPoint x="225" y="3443" as="sourcePoint" />
            <mxPoint x="1281" y="3443" as="targetPoint" />
          </mxGeometry>
        </mxCell>
        <mxCell id="lUnrgZi9oCxwlGKokyiH-16" value="&lt;b&gt;Dequeue Request&lt;/b&gt;" style="text;html=1;align=center;verticalAlign=middle;whiteSpace=wrap;rounded=0;" parent="1" vertex="1">
          <mxGeometry x="237" y="3421" width="308" height="30" as="geometry" />
        </mxCell>
        <mxCell id="lUnrgZi9oCxwlGKokyiH-17" value="" style="endArrow=classic;html=1;rounded=0;" parent="1" edge="1">
          <mxGeometry width="50" height="50" relative="1" as="geometry">
            <mxPoint x="225" y="3476" as="sourcePoint" />
            <mxPoint x="1985" y="3476" as="targetPoint" />
          </mxGeometry>
        </mxCell>
        <mxCell id="lUnrgZi9oCxwlGKokyiH-18" value="&lt;b&gt;Create Account&lt;/b&gt;" style="text;html=1;align=center;verticalAlign=middle;whiteSpace=wrap;rounded=0;" parent="1" vertex="1">
          <mxGeometry x="237" y="3454" width="308" height="30" as="geometry" />
        </mxCell>
        <mxCell id="lUnrgZi9oCxwlGKokyiH-19" value="" style="endArrow=classic;html=1;rounded=0;dashed=1;" parent="1" edge="1">
          <mxGeometry width="50" height="50" relative="1" as="geometry">
            <mxPoint x="222" y="3520" as="sourcePoint" />
            <mxPoint x="937" y="3520" as="targetPoint" />
          </mxGeometry>
        </mxCell>
        <mxCell id="lUnrgZi9oCxwlGKokyiH-20" value="&lt;b&gt;Account Create&lt;/b&gt;" style="text;html=1;align=center;verticalAlign=middle;whiteSpace=wrap;rounded=0;" parent="1" vertex="1">
          <mxGeometry x="240" y="3498" width="308" height="30" as="geometry" />
        </mxCell>
        <mxCell id="lUnrgZi9oCxwlGKokyiH-21" value="" style="endArrow=none;html=1;rounded=0;dashed=1;dashPattern=8 8;" parent="1" edge="1">
          <mxGeometry width="50" height="50" relative="1" as="geometry">
            <mxPoint x="225" y="3542" as="sourcePoint" />
            <mxPoint x="1986" y="3542" as="targetPoint" />
          </mxGeometry>
        </mxCell>
        <mxCell id="lUnrgZi9oCxwlGKokyiH-22" value="&lt;font style=&quot;font-size: 12px;&quot;&gt;&lt;b&gt;View Review&lt;/b&gt;&lt;/font&gt;" style="html=1;verticalAlign=bottom;startArrow=circle;startFill=1;endArrow=open;startSize=6;endSize=8;curved=0;rounded=0;" parent="1" edge="1">
          <mxGeometry width="80" relative="1" as="geometry">
            <mxPoint x="1171" y="3586" as="sourcePoint" />
            <mxPoint x="939" y="3586" as="targetPoint" />
          </mxGeometry>
        </mxCell>
        <mxCell id="lUnrgZi9oCxwlGKokyiH-23" value="" style="endArrow=classic;html=1;rounded=0;" parent="1" edge="1">
          <mxGeometry width="50" height="50" relative="1" as="geometry">
            <mxPoint x="225" y="3608" as="sourcePoint" />
            <mxPoint x="1633" y="3608" as="targetPoint" />
          </mxGeometry>
        </mxCell>
        <mxCell id="lUnrgZi9oCxwlGKokyiH-24" value="&lt;b&gt;Show Reviews&lt;/b&gt;" style="text;html=1;align=center;verticalAlign=middle;whiteSpace=wrap;rounded=0;" parent="1" vertex="1">
          <mxGeometry x="237" y="3586" width="308" height="30" as="geometry" />
        </mxCell>
        <mxCell id="lUnrgZi9oCxwlGKokyiH-25" value="" style="endArrow=classic;html=1;rounded=0;dashed=1;" parent="1" edge="1">
          <mxGeometry width="50" height="50" relative="1" as="geometry">
            <mxPoint x="222" y="3652" as="sourcePoint" />
            <mxPoint x="937" y="3652" as="targetPoint" />
          </mxGeometry>
        </mxCell>
        <mxCell id="lUnrgZi9oCxwlGKokyiH-26" value="&lt;b&gt;Display Review&lt;/b&gt;" style="text;html=1;align=center;verticalAlign=middle;whiteSpace=wrap;rounded=0;" parent="1" vertex="1">
          <mxGeometry x="243" y="3630" width="308" height="30" as="geometry" />
        </mxCell>
        <mxCell id="lUnrgZi9oCxwlGKokyiH-27" value="" style="endArrow=none;html=1;rounded=0;dashed=1;dashPattern=8 8;" parent="1" edge="1">
          <mxGeometry width="50" height="50" relative="1" as="geometry">
            <mxPoint x="225" y="3674" as="sourcePoint" />
            <mxPoint x="1986" y="3674" as="targetPoint" />
          </mxGeometry>
        </mxCell>
        <mxCell id="lUnrgZi9oCxwlGKokyiH-28" value="&lt;font style=&quot;font-size: 12px;&quot;&gt;&lt;b&gt;Add New Admin&lt;/b&gt;&lt;/font&gt;" style="html=1;verticalAlign=bottom;startArrow=circle;startFill=1;endArrow=open;startSize=6;endSize=8;curved=0;rounded=0;" parent="1" edge="1">
          <mxGeometry width="80" relative="1" as="geometry">
            <mxPoint x="1172" y="3718" as="sourcePoint" />
            <mxPoint x="940" y="3718" as="targetPoint" />
          </mxGeometry>
        </mxCell>
        <mxCell id="lUnrgZi9oCxwlGKokyiH-29" value="" style="endArrow=classic;html=1;rounded=0;" parent="1" edge="1">
          <mxGeometry width="50" height="50" relative="1" as="geometry">
            <mxPoint x="933" y="3740" as="sourcePoint" />
            <mxPoint x="225" y="3740" as="targetPoint" />
          </mxGeometry>
        </mxCell>
        <mxCell id="lUnrgZi9oCxwlGKokyiH-30" value="&lt;b&gt;Enter New Admin Info&lt;/b&gt;" style="text;html=1;align=center;verticalAlign=middle;whiteSpace=wrap;rounded=0;" parent="1" vertex="1">
          <mxGeometry x="599" y="3718" width="308" height="30" as="geometry" />
        </mxCell>
        <mxCell id="ktxHKE0SK9M4vjjQdF8--1" value="" style="endArrow=classic;html=1;rounded=0;" edge="1" parent="1">
          <mxGeometry width="50" height="50" relative="1" as="geometry">
            <mxPoint x="225" y="3784" as="sourcePoint" />
            <mxPoint x="1985" y="3784" as="targetPoint" />
          </mxGeometry>
        </mxCell>
        <mxCell id="ktxHKE0SK9M4vjjQdF8--2" value="&lt;b&gt;Save New Admin Data&lt;/b&gt;" style="text;html=1;align=center;verticalAlign=middle;whiteSpace=wrap;rounded=0;" vertex="1" parent="1">
          <mxGeometry x="258" y="3762" width="308" height="30" as="geometry" />
        </mxCell>
        <mxCell id="ktxHKE0SK9M4vjjQdF8--3" value="" style="endArrow=classic;html=1;rounded=0;dashed=1;" edge="1" parent="1">
          <mxGeometry width="50" height="50" relative="1" as="geometry">
            <mxPoint x="225" y="3814" as="sourcePoint" />
            <mxPoint x="940" y="3814" as="targetPoint" />
          </mxGeometry>
        </mxCell>
        <mxCell id="ktxHKE0SK9M4vjjQdF8--4" value="&lt;b&gt;Admin Added&lt;/b&gt;" style="text;html=1;align=center;verticalAlign=middle;whiteSpace=wrap;rounded=0;" vertex="1" parent="1">
          <mxGeometry x="246" y="3792" width="308" height="30" as="geometry" />
        </mxCell>
        <mxCell id="ktxHKE0SK9M4vjjQdF8--5" value="&lt;font style=&quot;font-size: 12px;&quot;&gt;&lt;b&gt;Delete Account&lt;/b&gt;&lt;/font&gt;" style="html=1;verticalAlign=bottom;startArrow=circle;startFill=1;endArrow=open;startSize=6;endSize=8;curved=0;rounded=0;" edge="1" parent="1">
          <mxGeometry width="80" relative="1" as="geometry">
            <mxPoint x="1171" y="3859" as="sourcePoint" />
            <mxPoint x="939" y="3859" as="targetPoint" />
          </mxGeometry>
        </mxCell>
        <mxCell id="ktxHKE0SK9M4vjjQdF8--6" value="" style="endArrow=classic;html=1;rounded=0;" edge="1" parent="1">
          <mxGeometry width="50" height="50" relative="1" as="geometry">
            <mxPoint x="935" y="3872" as="sourcePoint" />
            <mxPoint x="225" y="3872" as="targetPoint" />
          </mxGeometry>
        </mxCell>
        <mxCell id="ktxHKE0SK9M4vjjQdF8--7" value="&lt;b&gt;Select Account&lt;/b&gt;" style="text;html=1;align=center;verticalAlign=middle;whiteSpace=wrap;rounded=0;" vertex="1" parent="1">
          <mxGeometry x="599" y="3850" width="308" height="30" as="geometry" />
        </mxCell>
        <mxCell id="ktxHKE0SK9M4vjjQdF8--8" value="" style="endArrow=classic;html=1;rounded=0;" edge="1" parent="1">
          <mxGeometry width="50" height="50" relative="1" as="geometry">
            <mxPoint x="225" y="3902" as="sourcePoint" />
            <mxPoint x="1985" y="3902" as="targetPoint" />
          </mxGeometry>
        </mxCell>
        <mxCell id="ktxHKE0SK9M4vjjQdF8--9" value="&lt;b&gt;Delete Account&lt;/b&gt;" style="text;html=1;align=center;verticalAlign=middle;whiteSpace=wrap;rounded=0;" vertex="1" parent="1">
          <mxGeometry x="258" y="3880" width="308" height="30" as="geometry" />
        </mxCell>
        <mxCell id="ktxHKE0SK9M4vjjQdF8--10" value="" style="endArrow=classic;html=1;rounded=0;dashed=1;" edge="1" parent="1">
          <mxGeometry width="50" height="50" relative="1" as="geometry">
            <mxPoint x="225" y="3932" as="sourcePoint" />
            <mxPoint x="940" y="3932" as="targetPoint" />
          </mxGeometry>
        </mxCell>
        <mxCell id="ktxHKE0SK9M4vjjQdF8--11" value="&lt;b&gt;Account Deleted&lt;/b&gt;" style="text;html=1;align=center;verticalAlign=middle;whiteSpace=wrap;rounded=0;" vertex="1" parent="1">
          <mxGeometry x="246" y="3910" width="308" height="30" as="geometry" />
        </mxCell>
        <mxCell id="ktxHKE0SK9M4vjjQdF8--12" value="&lt;font style=&quot;font-size: 12px;&quot;&gt;&lt;b&gt;Unlock Account&lt;/b&gt;&lt;/font&gt;" style="html=1;verticalAlign=bottom;startArrow=circle;startFill=1;endArrow=open;startSize=6;endSize=8;curved=0;rounded=0;" edge="1" parent="1">
          <mxGeometry width="80" relative="1" as="geometry">
            <mxPoint x="1171" y="3993" as="sourcePoint" />
            <mxPoint x="939" y="3993" as="targetPoint" />
          </mxGeometry>
        </mxCell>
        <mxCell id="ktxHKE0SK9M4vjjQdF8--13" value="" style="endArrow=none;html=1;rounded=0;dashed=1;dashPattern=8 8;" edge="1" parent="1">
          <mxGeometry width="50" height="50" relative="1" as="geometry">
            <mxPoint x="225" y="3827" as="sourcePoint" />
            <mxPoint x="1986" y="3827" as="targetPoint" />
          </mxGeometry>
        </mxCell>
        <mxCell id="ktxHKE0SK9M4vjjQdF8--14" value="" style="endArrow=none;html=1;rounded=0;dashed=1;dashPattern=8 8;" edge="1" parent="1">
          <mxGeometry width="50" height="50" relative="1" as="geometry">
            <mxPoint x="225" y="3960" as="sourcePoint" />
            <mxPoint x="1986" y="3960" as="targetPoint" />
          </mxGeometry>
        </mxCell>
        <mxCell id="ktxHKE0SK9M4vjjQdF8--15" value="" style="endArrow=classic;html=1;rounded=0;" edge="1" parent="1">
          <mxGeometry width="50" height="50" relative="1" as="geometry">
            <mxPoint x="935" y="4004" as="sourcePoint" />
            <mxPoint x="225" y="4004" as="targetPoint" />
          </mxGeometry>
        </mxCell>
        <mxCell id="ktxHKE0SK9M4vjjQdF8--16" value="&lt;b&gt;Select lock Account&lt;/b&gt;" style="text;html=1;align=center;verticalAlign=middle;whiteSpace=wrap;rounded=0;" vertex="1" parent="1">
          <mxGeometry x="599" y="3982" width="308" height="30" as="geometry" />
        </mxCell>
        <mxCell id="ktxHKE0SK9M4vjjQdF8--17" value="" style="endArrow=classic;html=1;rounded=0;" edge="1" parent="1">
          <mxGeometry width="50" height="50" relative="1" as="geometry">
            <mxPoint x="225" y="4034" as="sourcePoint" />
            <mxPoint x="1985" y="4034" as="targetPoint" />
          </mxGeometry>
        </mxCell>
        <mxCell id="ktxHKE0SK9M4vjjQdF8--18" value="&lt;b&gt;Unlock Selected Account&lt;/b&gt;" style="text;html=1;align=center;verticalAlign=middle;whiteSpace=wrap;rounded=0;" vertex="1" parent="1">
          <mxGeometry x="258" y="4012" width="308" height="30" as="geometry" />
        </mxCell>
        <mxCell id="ktxHKE0SK9M4vjjQdF8--19" value="" style="endArrow=none;html=1;rounded=0;dashed=1;dashPattern=8 8;" edge="1" parent="1">
          <mxGeometry width="50" height="50" relative="1" as="geometry">
            <mxPoint x="225" y="4080" as="sourcePoint" />
            <mxPoint x="1986" y="4080" as="targetPoint" />
          </mxGeometry>
        </mxCell>
        <mxCell id="ktxHKE0SK9M4vjjQdF8--20" value="&lt;font style=&quot;font-size: 12px;&quot;&gt;&lt;b&gt;Approve Loan&lt;/b&gt;&lt;/font&gt;" style="html=1;verticalAlign=bottom;startArrow=circle;startFill=1;endArrow=open;startSize=6;endSize=8;curved=0;rounded=0;" edge="1" parent="1">
          <mxGeometry width="80" relative="1" as="geometry">
            <mxPoint x="1172" y="4111" as="sourcePoint" />
            <mxPoint x="940" y="4111" as="targetPoint" />
          </mxGeometry>
        </mxCell>
        <mxCell id="ktxHKE0SK9M4vjjQdF8--21" value="" style="endArrow=classic;html=1;rounded=0;" edge="1" parent="1">
          <mxGeometry width="50" height="50" relative="1" as="geometry">
            <mxPoint x="935" y="4135" as="sourcePoint" />
            <mxPoint x="225" y="4135" as="targetPoint" />
          </mxGeometry>
        </mxCell>
        <mxCell id="ktxHKE0SK9M4vjjQdF8--22" value="&lt;b&gt;Approve Loan Request&lt;/b&gt;" style="text;html=1;align=center;verticalAlign=middle;whiteSpace=wrap;rounded=0;" vertex="1" parent="1">
          <mxGeometry x="599" y="4110" width="308" height="30" as="geometry" />
        </mxCell>
        <mxCell id="ktxHKE0SK9M4vjjQdF8--23" value="" style="endArrow=classic;html=1;rounded=0;" edge="1" parent="1">
          <mxGeometry width="50" height="50" relative="1" as="geometry">
            <mxPoint x="222" y="4167" as="sourcePoint" />
            <mxPoint x="1278" y="4167" as="targetPoint" />
          </mxGeometry>
        </mxCell>
        <mxCell id="ktxHKE0SK9M4vjjQdF8--24" value="&lt;b&gt;Dequeue Loan Request&lt;/b&gt;" style="text;html=1;align=center;verticalAlign=middle;whiteSpace=wrap;rounded=0;" vertex="1" parent="1">
          <mxGeometry x="280" y="4143" width="308" height="30" as="geometry" />
        </mxCell>
        <mxCell id="ktxHKE0SK9M4vjjQdF8--26" value="" style="endArrow=classic;html=1;rounded=0;" edge="1" parent="1">
          <mxGeometry width="50" height="50" relative="1" as="geometry">
            <mxPoint x="225" y="4202" as="sourcePoint" />
            <mxPoint x="1985" y="4202" as="targetPoint" />
          </mxGeometry>
        </mxCell>
        <mxCell id="ktxHKE0SK9M4vjjQdF8--27" value="&lt;b&gt;Update Account Balance with Loan Amount&lt;/b&gt;" style="text;html=1;align=center;verticalAlign=middle;whiteSpace=wrap;rounded=0;" vertex="1" parent="1">
          <mxGeometry x="258" y="4174" width="308" height="30" as="geometry" />
        </mxCell>
        <mxCell id="ktxHKE0SK9M4vjjQdF8--28" value="" style="endArrow=none;html=1;rounded=0;dashed=1;dashPattern=8 8;" edge="1" parent="1">
          <mxGeometry width="50" height="50" relative="1" as="geometry">
            <mxPoint x="225" y="4245" as="sourcePoint" />
            <mxPoint x="1986" y="4245" as="targetPoint" />
          </mxGeometry>
        </mxCell>
        <mxCell id="ktxHKE0SK9M4vjjQdF8--29" value="" style="endArrow=classic;html=1;rounded=0;dashed=1;" edge="1" parent="1">
          <mxGeometry width="50" height="50" relative="1" as="geometry">
            <mxPoint x="225" y="4059" as="sourcePoint" />
            <mxPoint x="940" y="4059" as="targetPoint" />
          </mxGeometry>
        </mxCell>
        <mxCell id="ktxHKE0SK9M4vjjQdF8--30" value="&lt;b&gt;Account Unlocked&lt;/b&gt;" style="text;html=1;align=center;verticalAlign=middle;whiteSpace=wrap;rounded=0;" vertex="1" parent="1">
          <mxGeometry x="246" y="4037" width="308" height="30" as="geometry" />
        </mxCell>
        <mxCell id="ktxHKE0SK9M4vjjQdF8--31" value="" style="endArrow=classic;html=1;rounded=0;dashed=1;" edge="1" parent="1">
          <mxGeometry width="50" height="50" relative="1" as="geometry">
            <mxPoint x="225" y="4223" as="sourcePoint" />
            <mxPoint x="940" y="4223" as="targetPoint" />
          </mxGeometry>
        </mxCell>
        <mxCell id="ktxHKE0SK9M4vjjQdF8--32" value="&lt;b&gt;Request Loan Approved&lt;/b&gt;" style="text;html=1;align=center;verticalAlign=middle;whiteSpace=wrap;rounded=0;" vertex="1" parent="1">
          <mxGeometry x="246" y="4201" width="308" height="30" as="geometry" />
        </mxCell>
        <mxCell id="ktxHKE0SK9M4vjjQdF8--33" value="&lt;font style=&quot;font-size: 12px;&quot;&gt;&lt;b&gt;Approve&amp;nbsp;&lt;/b&gt;&lt;/font&gt;&lt;b style=&quot;font-size: 12px; text-wrap-mode: wrap; background-color: rgb(236, 236, 236);&quot;&gt;Consultation&amp;nbsp;&lt;/b&gt;" style="html=1;verticalAlign=bottom;startArrow=circle;startFill=1;endArrow=open;startSize=6;endSize=8;curved=0;rounded=0;" edge="1" parent="1">
          <mxGeometry width="80" relative="1" as="geometry">
            <mxPoint x="1172" y="4277" as="sourcePoint" />
            <mxPoint x="940" y="4277" as="targetPoint" />
          </mxGeometry>
        </mxCell>
        <mxCell id="ktxHKE0SK9M4vjjQdF8--34" value="" style="endArrow=classic;html=1;rounded=0;" edge="1" parent="1">
          <mxGeometry width="50" height="50" relative="1" as="geometry">
            <mxPoint x="938" y="4290" as="sourcePoint" />
            <mxPoint x="220" y="4290" as="targetPoint" />
          </mxGeometry>
        </mxCell>
        <mxCell id="ktxHKE0SK9M4vjjQdF8--35" value="&lt;b&gt;Approve Consultation Request&lt;/b&gt;" style="text;html=1;align=center;verticalAlign=middle;whiteSpace=wrap;rounded=0;" vertex="1" parent="1">
          <mxGeometry x="602" y="4265" width="308" height="30" as="geometry" />
        </mxCell>
        <mxCell id="ktxHKE0SK9M4vjjQdF8--36" value="" style="endArrow=classic;html=1;rounded=0;" edge="1" parent="1">
          <mxGeometry width="50" height="50" relative="1" as="geometry">
            <mxPoint x="222" y="4319" as="sourcePoint" />
            <mxPoint x="1278" y="4319" as="targetPoint" />
          </mxGeometry>
        </mxCell>
        <mxCell id="ktxHKE0SK9M4vjjQdF8--37" value="&lt;b&gt;Dequeue Consultation Request&lt;/b&gt;" style="text;html=1;align=center;verticalAlign=middle;whiteSpace=wrap;rounded=0;" vertex="1" parent="1">
          <mxGeometry x="283" y="4295" width="308" height="30" as="geometry" />
        </mxCell>
        <mxCell id="ktxHKE0SK9M4vjjQdF8--38" value="" style="endArrow=classic;html=1;rounded=0;" edge="1" parent="1">
          <mxGeometry width="50" height="50" relative="1" as="geometry">
            <mxPoint x="220" y="4345" as="sourcePoint" />
            <mxPoint x="1980" y="4345" as="targetPoint" />
          </mxGeometry>
        </mxCell>
        <mxCell id="ktxHKE0SK9M4vjjQdF8--39" value="&lt;b&gt;Store Consultation Date&lt;/b&gt;" style="text;html=1;align=center;verticalAlign=middle;whiteSpace=wrap;rounded=0;" vertex="1" parent="1">
          <mxGeometry x="258" y="4317" width="308" height="30" as="geometry" />
        </mxCell>
        <mxCell id="ktxHKE0SK9M4vjjQdF8--40" value="" style="endArrow=classic;html=1;rounded=0;dashed=1;" edge="1" parent="1">
          <mxGeometry width="50" height="50" relative="1" as="geometry">
            <mxPoint x="219.5" y="4378" as="sourcePoint" />
            <mxPoint x="934.5" y="4378" as="targetPoint" />
          </mxGeometry>
        </mxCell>
        <mxCell id="ktxHKE0SK9M4vjjQdF8--41" value="&lt;b&gt;Request Consultation Approved&lt;/b&gt;" style="text;html=1;align=center;verticalAlign=middle;whiteSpace=wrap;rounded=0;" vertex="1" parent="1">
          <mxGeometry x="240.5" y="4356" width="308" height="30" as="geometry" />
        </mxCell>
        <mxCell id="ktxHKE0SK9M4vjjQdF8--42" value="" style="endArrow=none;html=1;rounded=0;dashed=1;dashPattern=8 8;" edge="1" parent="1">
          <mxGeometry width="50" height="50" relative="1" as="geometry">
            <mxPoint x="219" y="4399" as="sourcePoint" />
            <mxPoint x="1980" y="4399" as="targetPoint" />
          </mxGeometry>
        </mxCell>
        <mxCell id="ktxHKE0SK9M4vjjQdF8--44" value="" style="endArrow=classic;html=1;rounded=0;" edge="1" parent="1">
          <mxGeometry width="50" height="50" relative="1" as="geometry">
            <mxPoint x="937" y="4463" as="sourcePoint" />
            <mxPoint x="219" y="4463" as="targetPoint" />
          </mxGeometry>
        </mxCell>
        <mxCell id="ktxHKE0SK9M4vjjQdF8--45" value="&lt;b&gt;Exist Admin Menu&lt;/b&gt;" style="text;html=1;align=center;verticalAlign=middle;whiteSpace=wrap;rounded=0;" vertex="1" parent="1">
          <mxGeometry x="601" y="4438" width="308" height="30" as="geometry" />
        </mxCell>
        <mxCell id="ktxHKE0SK9M4vjjQdF8--46" value="&lt;font style=&quot;font-size: 12px;&quot;&gt;&lt;b&gt;Exist Admin Menu&lt;/b&gt;&lt;/font&gt;" style="html=1;verticalAlign=bottom;startArrow=circle;startFill=1;endArrow=open;startSize=6;endSize=8;curved=0;rounded=0;" edge="1" parent="1">
          <mxGeometry width="80" relative="1" as="geometry">
            <mxPoint x="1213" y="4442" as="sourcePoint" />
            <mxPoint x="938" y="4442" as="targetPoint" />
          </mxGeometry>
        </mxCell>
        <mxCell id="ktxHKE0SK9M4vjjQdF8--47" value="&lt;b&gt;Log Out&lt;/b&gt;" style="html=1;verticalAlign=bottom;startArrow=circle;startFill=1;endArrow=open;startSize=6;endSize=8;curved=0;rounded=0;" edge="1" parent="1">
          <mxGeometry x="-0.1316" y="11" width="80" relative="1" as="geometry">
            <mxPoint x="-358" y="4598" as="sourcePoint" />
            <mxPoint x="-129" y="4598" as="targetPoint" />
            <mxPoint as="offset" />
          </mxGeometry>
        </mxCell>
        <mxCell id="ktxHKE0SK9M4vjjQdF8--48" value="" style="endArrow=classic;html=1;rounded=0;dashed=1;" edge="1" parent="1">
          <mxGeometry width="50" height="50" relative="1" as="geometry">
            <mxPoint x="220" y="4521" as="sourcePoint" />
            <mxPoint x="-127" y="4521" as="targetPoint" />
          </mxGeometry>
        </mxCell>
        <mxCell id="ktxHKE0SK9M4vjjQdF8--49" value="&lt;b&gt;Invalid Login Date&amp;nbsp;&lt;/b&gt;" style="text;html=1;align=center;verticalAlign=middle;whiteSpace=wrap;rounded=0;" vertex="1" parent="1">
          <mxGeometry x="-116" y="4499" width="308" height="30" as="geometry" />
        </mxCell>
        <mxCell id="ktxHKE0SK9M4vjjQdF8--50" value="" style="endArrow=none;html=1;rounded=0;dashed=1;dashPattern=8 8;" edge="1" parent="1">
          <mxGeometry width="50" height="50" relative="1" as="geometry">
            <mxPoint x="-129" y="4576" as="sourcePoint" />
            <mxPoint x="1983" y="4576" as="targetPoint" />
          </mxGeometry>
        </mxCell>
        <mxCell id="ktxHKE0SK9M4vjjQdF8--51" value="" style="endArrow=classic;html=1;rounded=0;" edge="1" parent="1">
          <mxGeometry width="50" height="50" relative="1" as="geometry">
            <mxPoint x="219" y="4620" as="sourcePoint" />
            <mxPoint x="591" y="4620" as="targetPoint" />
          </mxGeometry>
        </mxCell>
        <mxCell id="ktxHKE0SK9M4vjjQdF8--52" value="&lt;b&gt;Save All Data&lt;/b&gt;" style="text;html=1;align=center;verticalAlign=middle;whiteSpace=wrap;rounded=0;" vertex="1" parent="1">
          <mxGeometry x="236" y="4587" width="308" height="30" as="geometry" />
        </mxCell>
        <mxCell id="ktxHKE0SK9M4vjjQdF8--53" value="" style="endArrow=classic;html=1;rounded=0;" edge="1" parent="1">
          <mxGeometry width="50" height="50" relative="1" as="geometry">
            <mxPoint x="219" y="4664" as="sourcePoint" />
            <mxPoint x="591" y="4664" as="targetPoint" />
          </mxGeometry>
        </mxCell>
        <mxCell id="ktxHKE0SK9M4vjjQdF8--54" value="&lt;b&gt;Generate Backup&lt;/b&gt;" style="text;html=1;align=center;verticalAlign=middle;whiteSpace=wrap;rounded=0;" vertex="1" parent="1">
          <mxGeometry x="236" y="4631" width="308" height="30" as="geometry" />
        </mxCell>
        <mxCell id="ktxHKE0SK9M4vjjQdF8--55" value="" style="endArrow=classic;html=1;rounded=0;dashed=1;" edge="1" parent="1">
          <mxGeometry width="50" height="50" relative="1" as="geometry">
            <mxPoint x="218" y="4686" as="sourcePoint" />
            <mxPoint x="-129" y="4686" as="targetPoint" />
          </mxGeometry>
        </mxCell>
        <mxCell id="ktxHKE0SK9M4vjjQdF8--56" value="&lt;b&gt;Goodbye Message&amp;nbsp;&lt;/b&gt;" style="text;html=1;align=center;verticalAlign=middle;whiteSpace=wrap;rounded=0;" vertex="1" parent="1">
          <mxGeometry x="-118" y="4664" width="308" height="30" as="geometry" />
        </mxCell>
      </root>
    </mxGraphModel>
  </diagram>
</mxfile>
